<?xml version="1.0" standalone="no"?>
<!DOCTYPE svg PUBLIC "-//W3C//DTD SVG 20010904//EN"
 "http://www.w3.org/TR/2001/REC-SVG-20010904/DTD/svg10.dtd">
<svg version="1.0" xmlns="http://www.w3.org/2000/svg"
 width="794.000000pt" height="777.000000pt" viewBox="0 0 794.000000 777.000000"
 preserveAspectRatio="xMidYMid meet">
<metadata>
Created by potrace 1.16, written by Peter Selinger 2001-2019
</metadata>
<g transform="translate(0.000000,777.000000) scale(0.100000,-0.100000)"
fill="#000000" stroke="none">
<path d="M4351 7462 c-45 -47 -65 -80 -115 -197 -54 -125 -70 -139 -189 -176
-108 -33 -196 -79 -249 -130 -82 -78 -68 -120 94 -273 61 -58 119 -119 129
-136 16 -26 19 -51 19 -179 0 -120 4 -158 19 -204 29 -83 57 -117 98 -117 65
0 195 53 328 135 71 43 82 43 235 -10 92 -31 117 -36 207 -37 69 -1 107 3 118
12 21 17 21 235 0 343 -26 135 -23 149 43 230 76 94 130 198 147 285 6 27 2
37 -23 60 -36 34 -81 56 -152 75 -68 18 -189 37 -235 37 -21 0 -43 8 -59 23
-27 24 -116 153 -116 168 0 5 -29 38 -64 74 l-64 65 -63 0 c-62 0 -63 -1 -108
-48z m156 -139 c15 -20 45 -55 66 -78 20 -23 37 -48 37 -54 0 -16 99 -128 119
-137 9 -3 48 -8 86 -11 39 -2 114 -13 169 -24 54 -10 100 -19 102 -19 2 0 4
-9 4 -20 0 -26 -36 -82 -89 -140 -121 -133 -139 -197 -101 -360 37 -155 40
-170 40 -196 0 -24 -1 -25 -47 -18 -27 3 -88 22 -138 41 -49 19 -107 41 -128
49 -64 24 -128 4 -262 -80 -105 -67 -152 -89 -169 -83 -14 6 -16 31 -16 182 0
155 -2 180 -20 214 -11 22 -71 88 -135 147 -64 61 -115 117 -115 127 0 20 78
59 210 107 140 49 134 43 235 235 56 106 91 155 110 155 8 0 27 -16 42 -37z"/>
<path d="M6134 7141 c-61 -28 -108 -74 -199 -196 -116 -153 -158 -195 -198
-195 -49 0 -285 -37 -350 -54 -80 -21 -156 -64 -174 -99 -33 -64 28 -212 184
-445 49 -74 58 -108 43 -177 -6 -27 -15 -75 -20 -105 -5 -30 -14 -73 -19 -95
-6 -22 -11 -89 -11 -150 0 -119 14 -160 61 -186 39 -20 240 -6 334 25 44 14
101 33 126 41 90 29 131 22 238 -43 183 -111 284 -152 375 -152 69 0 76 3 99
45 38 70 48 114 57 250 11 169 19 261 26 298 4 19 29 46 82 89 114 92 251 228
273 270 53 103 8 174 -161 255 -160 76 -172 81 -265 116 -81 30 -92 38 -111
73 -11 21 -23 48 -27 59 -40 131 -106 272 -150 322 -61 70 -136 89 -213 54z
m119 -193 c46 -73 70 -120 105 -208 40 -99 79 -168 106 -185 11 -8 71 -34 131
-58 61 -24 139 -58 175 -74 36 -17 74 -33 86 -37 11 -3 30 -15 42 -27 22 -20
22 -21 5 -51 -22 -38 -222 -230 -283 -271 -25 -17 -48 -35 -51 -40 -7 -9 -11
-70 -29 -356 -13 -210 -15 -212 -150 -148 -36 17 -110 61 -165 97 -171 111
-196 117 -311 74 -38 -14 -94 -34 -124 -45 -30 -11 -64 -24 -74 -30 -11 -6
-58 -14 -104 -17 l-84 -5 5 84 c4 84 20 178 38 234 59 178 55 208 -54 341 -56
69 -171 294 -158 307 10 10 56 21 176 42 44 8 107 19 140 24 33 6 83 11 110
11 32 0 57 7 71 18 23 19 122 135 145 168 13 20 133 156 167 191 26 26 51 14
85 -39z"/>
<path d="M1900 5773 c-221 -33 -350 -101 -472 -250 -59 -73 -133 -212 -144
-275 -4 -18 -11 -41 -16 -50 -4 -10 -17 -68 -28 -130 -25 -141 -27 -343 -4
-443 16 -74 68 -246 84 -280 38 -80 50 -131 50 -205 0 -44 -6 -97 -14 -117
-21 -58 -73 -268 -90 -363 -27 -155 -38 -383 -26 -546 6 -82 17 -176 25 -209
7 -33 21 -95 31 -137 l18 -78 -35 -37 c-18 -21 -82 -87 -141 -148 -371 -384
-465 -531 -517 -811 -33 -180 12 -366 120 -487 128 -146 325 -233 648 -288 82
-14 746 -7 816 9 28 6 93 18 145 27 125 21 220 43 300 68 36 11 104 22 152 25
75 4 99 1 170 -22 168 -53 253 -73 338 -82 80 -7 386 -10 525 -4 l120 5 143
-87 c79 -49 146 -88 149 -88 3 0 38 -19 77 -43 76 -44 91 -52 227 -116 94 -44
114 -52 274 -107 61 -20 126 -43 145 -50 39 -14 172 -45 300 -71 128 -26 528
-30 630 -7 216 49 387 189 458 374 69 183 71 390 6 601 -8 26 -14 52 -14 59 0
41 -182 427 -258 545 -24 39 -54 86 -67 105 -197 308 -205 322 -205 354 0 17
19 76 41 131 64 158 68 175 99 470 18 167 21 172 254 432 119 134 149 182 271
448 8 17 28 77 45 134 28 96 30 115 30 261 0 138 -3 167 -25 241 -50 169 -137
313 -254 422 -121 111 -241 147 -494 147 -113 0 -190 -5 -226 -14 -31 -8 -78
-19 -105 -25 -26 -6 -68 -20 -92 -31 -23 -11 -52 -20 -62 -20 -11 0 -68 37
-128 83 -103 78 -292 206 -324 221 -8 3 -37 19 -65 36 -61 36 -171 90 -245
119 -30 13 -68 29 -85 36 -28 13 -114 42 -230 78 -78 24 -183 47 -218 47 -18
0 -54 7 -81 15 -72 22 -583 21 -687 0 -41 -9 -99 -20 -129 -26 -86 -17 -156
-39 -273 -86 -85 -33 -122 -43 -167 -43 -57 0 -61 2 -117 53 -97 88 -172 130
-310 176 -104 34 -285 62 -343 54z m290 -228 c77 -34 199 -118 259 -179 l43
-43 -30 -22 c-17 -11 -32 -21 -35 -21 -6 0 -111 -71 -174 -117 -103 -76 -268
-222 -350 -310 -154 -167 -198 -225 -296 -398 -61 -106 -84 -141 -91 -134 -7
9 -44 126 -56 179 -6 30 -18 78 -26 106 -19 69 -20 402 0 465 7 24 18 66 25
92 21 90 92 217 156 283 62 63 94 84 180 116 42 15 72 18 190 15 128 -3 146
-6 205 -32z m1658 -70 c251 -36 343 -55 430 -91 18 -8 39 -14 48 -14 28 0 263
-112 359 -171 53 -32 98 -59 101 -59 7 0 240 -177 296 -224 27 -23 48 -46 48
-52 0 -11 -22 -32 -82 -78 -26 -19 -38 -36 -38 -53 0 -49 25 -44 255 47 211
84 322 120 403 131 99 14 282 6 324 -15 17 -9 36 -16 42 -16 15 0 117 -68 153
-101 85 -79 119 -132 155 -243 16 -51 20 -88 20 -237 0 -193 -6 -224 -68 -374
-79 -192 -123 -247 -505 -627 -115 -114 -209 -214 -209 -222 0 -7 7 -19 15
-26 19 -16 79 0 137 36 l38 24 0 -67 c0 -68 -8 -111 -56 -298 -14 -55 -27
-111 -30 -125 -3 -14 -9 -34 -14 -45 -5 -11 -25 -60 -46 -110 -153 -366 -463
-733 -844 -998 -67 -47 -331 -183 -410 -212 -108 -39 -229 -77 -275 -85 -244
-42 -317 -50 -473 -50 -152 0 -314 13 -392 32 -25 6 -67 14 -95 18 -50 8 -81
17 -248 71 -123 40 -294 120 -397 184 -30 19 -67 41 -83 50 -57 32 -225 165
-306 241 -346 325 -602 818 -651 1254 -5 41 -13 104 -19 140 -29 181 -2 504
65 765 28 108 72 239 108 317 14 31 26 59 26 61 0 8 91 171 118 212 206 307
421 520 709 703 63 39 345 182 361 182 3 0 36 11 72 23 144 53 268 80 440 97
63 7 120 14 125 15 31 10 302 3 393 -10z m-2339 -3117 c89 -179 117 -231 178
-324 208 -320 535 -625 813 -755 110 -51 113 -53 112 -64 -1 -6 -14 -13 -29
-17 -15 -4 -46 -11 -68 -17 -22 -5 -83 -17 -135 -26 -52 -9 -120 -20 -150 -26
-224 -38 -596 -50 -784 -24 -156 21 -268 44 -280 56 -6 5 -16 9 -23 9 -31 0
-164 73 -212 116 -86 78 -121 159 -121 286 0 191 71 349 263 580 91 111 332
348 354 348 6 0 43 -64 82 -142z m4199 -170 c16 -24 60 -94 98 -155 38 -62 86
-138 106 -170 207 -322 299 -571 298 -808 0 -142 -35 -262 -94 -321 -12 -12
-31 -33 -44 -47 -40 -45 -111 -78 -247 -117 -51 -14 -458 -8 -535 9 -176 38
-242 55 -380 102 -146 48 -154 51 -185 65 -16 7 -84 37 -150 67 -160 70 -404
217 -405 244 0 6 24 17 53 24 45 10 90 26 272 92 31 11 245 118 280 139 87 54
195 130 266 186 113 89 294 274 388 397 72 93 94 125 195 278 21 31 42 57 47
57 4 0 21 -19 37 -42z"/>
<path d="M2812 5238 c-21 -21 -13 -66 17 -100 40 -46 45 -70 23 -99 -57 -72
-190 -319 -228 -421 -30 -82 -54 -163 -54 -183 0 -11 -7 -38 -15 -60 -9 -26
-14 -82 -15 -159 0 -178 38 -274 127 -320 46 -23 77 -20 129 12 38 24 124 127
124 149 0 3 20 56 44 117 74 185 166 453 166 481 0 30 24 65 44 65 30 0 66 27
66 50 0 10 -15 36 -32 58 -18 22 -69 86 -113 142 -157 201 -230 280 -259 280
-7 0 -17 -5 -24 -12z m187 -308 c28 -33 55 -69 61 -80 12 -23 4 -61 -23 -110
-37 -66 -57 -88 -97 -104 -54 -21 -87 -20 -100 3 -16 30 -12 163 6 207 39 98
68 144 90 144 7 0 36 -27 63 -60z m-250 -658 c42 -15 96 -15 122 -2 10 6 19 7
19 2 0 -20 -64 -169 -89 -207 -24 -36 -32 -40 -71 -43 -67 -4 -80 23 -80 170
0 63 3 118 6 121 4 4 19 -2 33 -12 14 -10 41 -23 60 -29z"/>
<path d="M4165 4919 c-16 -5 -48 -13 -70 -18 -90 -20 -403 -116 -450 -139 -69
-33 -91 -75 -60 -116 15 -19 16 -15 -33 -126 -15 -36 -56 -175 -72 -245 -5
-22 -14 -56 -20 -75 -5 -19 -10 -108 -10 -198 0 -185 3 -194 75 -261 l47 -43
66 4 c128 8 199 88 297 338 20 52 43 111 50 130 53 133 126 419 140 545 9 82
16 91 72 99 117 15 194 64 163 101 -14 17 -144 20 -195 4z m-155 -182 c0 -42
-57 -188 -95 -243 -61 -89 -125 -115 -179 -73 -25 20 -26 24 -26 119 0 129 0
130 205 198 81 27 95 27 95 -1z m-404 -631 c15 -13 44 -29 66 -37 35 -11 46
-11 90 5 27 10 52 15 55 13 6 -6 -72 -203 -93 -235 -19 -29 -76 -54 -101 -45
-10 3 -28 15 -40 26 -22 19 -23 28 -23 159 0 89 4 138 10 138 6 0 22 -11 36
-24z"/>
<path d="M2950 3789 c-129 -22 -228 -77 -342 -188 -47 -46 -91 -93 -97 -105
-6 -12 -20 -34 -30 -51 -26 -39 -91 -173 -91 -186 0 -5 -4 -17 -9 -27 -5 -9
-16 -40 -25 -67 -95 -317 -85 -808 24 -1080 4 -11 16 -42 26 -70 73 -207 272
-447 449 -545 22 -12 54 -30 70 -40 61 -37 210 -80 302 -86 95 -7 270 9 287
26 5 5 17 10 26 10 20 0 125 50 170 81 76 52 113 87 171 161 93 120 158 277
193 469 21 114 22 383 1 482 -35 170 -69 290 -91 322 -8 11 -14 26 -14 33 0
19 -96 214 -133 270 -18 26 -36 55 -42 64 -143 224 -309 394 -470 480 -77 41
-272 65 -375 47z m777 -578 c81 -90 191 -347 223 -521 4 -25 14 -72 21 -105 8
-38 13 -136 13 -270 1 -264 -11 -335 -87 -505 -29 -66 -117 -180 -179 -232
-51 -43 -128 -94 -138 -92 -3 1 -14 -2 -25 -6 -83 -31 -140 -40 -262 -40 -90
0 -144 5 -173 15 -23 8 -51 15 -62 15 -29 0 -174 73 -237 119 -110 81 -233
225 -264 311 -21 58 -23 263 -3 336 7 27 19 74 25 104 16 70 95 267 138 343
18 33 33 62 33 67 0 4 7 14 17 21 9 8 22 28 29 45 18 43 194 226 268 279 166
118 353 176 541 167 l80 -4 42 -47z"/>
</g>
</svg>
