<svg xmlns="http://www.w3.org/2000/svg" viewBox="0 0 43.32 43.32">
  <title>Logo</title>

  <defs>
    <linearGradient id="holo" x1="0%" y1="0%" x2="100%" y2="100%">
      <stop offset="0%" stop-color="#00f0ff">
        <animate attributeName="stop-color" values="#00f0ff;#ff4fd8;#b6ff00;#00f0ff" dur="4s" repeatCount="indefinite"/>
      </stop>
      <stop offset="55%" stop-color="#ffffff"/>
      <stop offset="100%" stop-color="#7c3cff">
        <animate attributeName="stop-color" values="#7c3cff;#00f0ff;#ff4fd8;#7c3cff" dur="4s" repeatCount="indefinite"/>
      </stop>
      <animateTransform attributeName="gradientTransform" type="rotate" from="0 .5 .5" to="360 .5 .5" dur="6s" repeatCount="indefinite"/>
    </linearGradient>

    <filter id="glow">
      <feGaussianBlur stdDeviation="1.1" result="blur"/>
      <feMerge>
        <feMergeNode in="blur"/>
        <feMergeNode in="SourceGraphic"/>
      </feMerge>
    </filter>
  </defs>

  <rect width="43.32" height="43.32" rx="21.66" fill="#050510"/>

  <path
    fill="url(#holo)"
    filter="url(#glow)"
    d="M21.66 0a21.66 21.66 0 1 0 21.66 21.66A21.66 21.66 0 0 0 21.66 0m15.2 22.2a12 12 0 0 1-1.1 1.25c-.6.64-1.25 1.3-1.95 2s-1.38 1.37-2.05 2a7 7 0 0 1-1.4 1.15 4.16 4.16 0 0 1-3.25.55 4.16 4.16 0 0 1-2.2-1.8 11.1 11.1 0 0 1-1.3-3.25q-.45-1.89-.75-3.75c-.2-1.23-.35-2.36-.45-3.4s-.18-1.75-.25-2.15a2.4 2.4 0 0 0-.1-.45s-.1.15-.3.35a8 8 0 0 0-1.7 2.5c-.53 1.14-1 2.37-1.55 3.7s-1 2.69-1.5 4.05a38 38 0 0 1-1.55 3.7 12.2 12.2 0 0 1-1.65 2.65 1.79 1.79 0 0 1-2 .7 2.93 2.93 0 0 1-1.55-.9 6.3 6.3 0 0 1-1.1-1.65 10.6 10.6 0 0 1-.7-1.95c-.16-.66-.28-1.23-.35-1.7A9 9 0 0 1 8 24.6v-3.3c0-.54.05-1 .05-1.3a6.8 6.8 0 0 1 1-3.15 1.78 1.78 0 0 1 1.8-1 1.53 1.53 0 0 1 1.25 1.55c.1.9.25 2 .45 3.35a36 36 0 0 1 .4 4.75 16 16 0 0 0 .1 2.3c.07.3.25.12.55-.55s.85-1.9 1.65-3.7a31 31 0 0 0 1.55-4.1A31.3 31.3 0 0 1 19.26 14q1.71-2.89 3.85-2.75c1.44.1 2.52 1.19 3.25 3.25a15.3 15.3 0 0 1 .7 5.2 21.6 21.6 0 0 0 .41 5.1 3 3 0 0 0 .84 1.95c.37.24.89.14 1.55-.3a15 15 0 0 0 2.5-2.2q1.5-1.55 3.8-3.75c.94.2 1.32.49 1.15.85a5 5 0 0 1-.45.85"
  />
</svg>
