<svg xmlns="http://www.w3.org/2000/svg" viewBox="0 0 43.32 43.32">
    <defs>
        <style>
            path {
            color: black;
            fill: black;
            @media (prefers-color-scheme: dark) {
            color: white;
            fill: white;
            }
            }
        </style>
    </defs>

    <title>Logo</title>
    <path
        d="M21.66,0A21.66,21.66,0,1,0,43.32,21.66,21.66,21.66,0,0,0,21.66,0Zm15.2,22.2a12.36,12.36,0,0,1-1.1,1.25c-.6.64-1.25,1.3-1.95,2s-1.38,1.37-2.05,2a7,7,0,0,1-1.4,1.15,4.16,4.16,0,0,1-3.25.55,4.16,4.16,0,0,1-2.2-1.8,11.09,11.09,0,0,1-1.3-3.25q-.45-1.89-.75-3.75c-.2-1.23-.35-2.36-.45-3.4s-.18-1.75-.25-2.15a2.36,2.36,0,0,0-.1-.45s-.1.15-.3.35a8,8,0,0,0-1.7,2.5c-.53,1.14-1,2.37-1.55,3.7s-1,2.69-1.5,4.05a37.94,37.94,0,0,1-1.55,3.7,12.15,12.15,0,0,1-1.65,2.65,1.79,1.79,0,0,1-2,.7,2.93,2.93,0,0,1-1.55-.9,6.34,6.34,0,0,1-1.1-1.65,10.56,10.56,0,0,1-.7-1.95c-.16-.66-.28-1.23-.35-1.7A8.68,8.68,0,0,1,8,24.6c0-.53,0-1.08,0-1.65s0-1.11,0-1.65.05-1,.05-1.3a6.77,6.77,0,0,1,1-3.15,1.78,1.78,0,0,1,1.8-1,1.53,1.53,0,0,1,1.25,1.55c.1.9.25,2,.45,3.35a35.72,35.72,0,0,1,.4,4.75,15.92,15.92,0,0,0,.1,2.3c.07.3.25.12.55-.55s.85-1.9,1.65-3.7a31.32,31.32,0,0,0,1.55-4.1A31.29,31.29,0,0,1,19.26,14q1.71-2.89,3.85-2.75c1.44.1,2.52,1.19,3.25,3.25a15.32,15.32,0,0,1,.7,5.2,21.61,21.61,0,0,0,.41,5.1,3,3,0,0,0,.84,1.95c.37.24.89.14,1.55-.3a15.12,15.12,0,0,0,2.5-2.2q1.5-1.55,3.8-3.75c.94.2,1.32.49,1.15.85A4.92,4.92,0,0,1,36.86,22.2Z" />

</svg>