<?xml version="1.0" standalone="no"?>
<!DOCTYPE svg PUBLIC "-//W3C//DTD SVG 20010904//EN" "http://www.w3.org/TR/2001/REC-SVG-20010904/DTD/svg10.dtd">
<svg version="1.0" xmlns="http://www.w3.org/2000/svg" viewBox="0 0 1228.000000 736.000000"
    preserveAspectRatio="xMidYMid meet">
    <style>
        path {
            fill: currentColor;
        }
    </style>
    <g transform="translate(0.000000,736.000000) scale(0.100000,-0.100000)" stroke="none">
        <path d="M10425 7333 c-16 -8 -46 -30 -65 -48 -33 -32 -39 -33 -121 -37 -68
-2 -91 -7 -108 -22 -41 -37 -28 -73 89 -252 148 -227 222 -437 251 -715 17
-171 -22 -418 -98 -614 -37 -93 -143 -297 -179 -342 l-20 -26 -85 53 c-123 78
-366 193 -504 238 -260 86 -496 124 -785 124 -290 0 -532 -39 -776 -123 -63
-21 -118 -39 -123 -39 -10 0 -50 115 -75 215 -42 166 -66 564 -47 763 14 152
40 221 143 377 120 182 136 247 70 292 -50 33 -113 39 -212 19 -72 -15 -97
-15 -152 -6 -72 13 -142 4 -197 -24 -122 -64 -221 -352 -266 -780 -36 -346 -5
-867 70 -1195 l15 -63 -47 -41 c-92 -77 -255 -251 -330 -351 -81 -109 -158
-235 -218 -357 l-38 -76 -97 -7 c-158 -10 -362 -70 -500 -148 -235 -133 -392
-307 -467 -519 l-27 -76 -155 -7 c-84 -3 -155 -5 -157 -3 -2 1 -12 45 -23 97
-48 218 -99 314 -172 326 -31 5 -369 -53 -444 -76 -16 -5 -237 -52 -490 -104
-1228 -253 -3218 -687 -3720 -812 -258 -64 -328 -84 -341 -97 -19 -19 -28 -76
-12 -81 7 -3 249 -9 538 -15 351 -7 526 -14 528 -21 3 -8 8 -7 17 0 15 12 147
10 1590 -30 1759 -49 2019 -59 2030 -77 26 -44 147 -161 213 -204 l73 -48 -38
-7 c-94 -17 -116 -55 -68 -113 37 -43 215 -104 397 -134 l68 -12 -64 -44 c-69
-47 -170 -145 -233 -226 -70 -90 -63 -115 17 -66 52 32 86 48 188 86 36 14 60
19 55 12 -30 -48 -128 -170 -157 -193 -37 -31 -62 -82 -48 -96 5 -5 37 0 73
11 182 57 233 72 329 95 58 14 159 33 225 41 66 8 134 18 152 21 l32 6 -64
-112 c-110 -193 -204 -439 -251 -660 -13 -62 -18 -129 -19 -245 0 -151 1 -163
27 -222 77 -179 194 -277 404 -335 71 -19 103 -22 314 -22 219 0 244 2 365 27
299 64 665 215 902 373 203 136 401 325 446 426 6 16 16 28 22 28 5 0 46 -12
90 -25 113 -35 292 -72 423 -87 l111 -12 7 -30 c10 -50 60 -152 108 -224 121
-183 313 -309 666 -440 365 -136 677 -203 1015 -219 203 -9 375 23 462 87 56
42 115 132 147 227 36 105 54 300 38 410 -22 157 -104 389 -191 543 l-48 85
26 11 c24 10 51 50 51 76 0 6 -13 23 -29 37 -53 49 -81 133 -74 230 6 104 18
114 32 30 24 -135 67 -197 109 -155 15 15 18 9 39 -71 39 -146 103 -199 137
-113 18 45 35 152 36 218 l0 43 60 -65 c68 -72 158 -134 247 -171 99 -40 240
-83 251 -76 15 9 32 57 32 89 0 22 -10 33 -61 62 -51 29 -166 137 -156 146 2
2 43 -11 92 -28 77 -27 108 -32 211 -36 144 -5 206 9 280 64 63 46 85 76 91
124 5 36 4 38 -29 49 -26 8 -64 9 -139 2 -140 -13 -235 -1 -319 41 l-64 33 -2
70 c-1 39 -15 125 -33 195 -17 69 -51 251 -75 406 -50 310 -72 420 -112 545
-27 84 -149 381 -185 447 -32 61 -26 85 27 112 186 96 365 514 404 945 18 203
-8 361 -86 524 -99 203 -302 337 -554 366 l-56 6 12 82 c33 227 25 608 -17
823 -46 242 -204 594 -359 803 -80 108 -112 131 -181 131 -30 -1 -67 -8 -84
-17z m115 -104 c8 -6 11 -12 5 -15 -27 -11 -77 -46 -73 -50 3 -2 25 7 50 21
l46 26 54 -73 c30 -40 64 -89 76 -109 20 -33 20 -36 4 -54 -16 -18 -16 -18 1
-5 22 16 21 18 77 -92 l39 -76 -54 -18 c-30 -9 -55 -19 -55 -21 0 -6 73 8 92
18 22 12 33 -10 82 -148 35 -102 66 -239 66 -294 0 -26 -5 -29 -60 -45 -33 -9
-63 -21 -67 -26 -3 -6 3 -8 14 -4 11 3 43 12 72 20 l52 13 -3 -61 -3 -61 -50
-8 c-27 -4 -54 -13 -60 -19 -7 -7 0 -9 25 -3 84 17 90 16 90 -10 0 -21 -5 -25
-32 -26 -18 -1 -44 -5 -58 -9 -18 -7 -9 -8 35 -7 54 2 60 0 60 -18 0 -17 -8
-21 -52 -25 -62 -6 -86 -23 -28 -20 65 4 75 1 75 -20 0 -16 -7 -20 -37 -20
-21 0 -45 -5 -53 -11 -11 -7 -5 -10 25 -8 59 3 65 1 65 -21 0 -17 -7 -20 -47
-20 -27 0 -55 -5 -63 -10 -11 -7 3 -10 48 -10 60 0 62 -1 62 -26 0 -28 7 -27
-91 -8 -56 11 -23 -12 36 -25 43 -10 55 -17 53 -29 -2 -12 -17 -19 -48 -23
l-45 -6 43 -1 c38 -2 42 -4 42 -27 0 -24 -3 -25 -62 -25 -72 0 -70 -13 3 -16
28 -1 52 -4 54 -6 2 -2 2 -14 -2 -27 -4 -17 -11 -21 -27 -17 -11 2 -34 8 -50
12 -21 5 -27 4 -22 -5 4 -6 16 -11 26 -11 32 0 71 -22 65 -38 -3 -7 -5 -17 -5
-21 0 -5 -24 -2 -52 6 -29 7 -57 11 -63 9 -11 -4 -2 -8 63 -25 36 -10 43 -16
40 -34 -2 -18 -9 -22 -38 -20 l-35 2 28 -13 c27 -12 27 -13 9 -29 -10 -9 -36
-18 -58 -18 -37 -1 -37 -2 -9 -8 30 -6 30 -6 -15 -20 -142 -42 -294 -165 -359
-291 -19 -36 -35 -66 -37 -68 -1 -2 -36 25 -77 59 l-75 62 33 51 c173 271 213
357 271 590 31 123 43 367 25 494 -33 225 -101 420 -216 617 -41 70 -73 130
-71 133 3 2 24 8 48 13 33 7 54 21 90 62 39 43 49 49 58 37 8 -13 10 -13 10 3
0 19 17 22 40 6z m-2622 -161 c4 -34 -4 -35 -35 -6 -13 12 -23 16 -23 10 0 -7
4 -12 10 -12 17 0 33 -41 21 -53 -8 -8 -18 -4 -36 13 -14 13 -25 20 -25 16 0
-5 11 -17 25 -28 l25 -20 -32 -45 c-41 -57 -42 -57 -75 -38 -27 16 -27 16 -5
0 27 -21 27 -33 1 -64 -18 -23 -23 -24 -52 -13 -29 10 -30 10 -13 -3 10 -8 24
-16 29 -18 6 -2 8 -11 4 -21 -4 -9 -11 -15 -15 -12 -5 3 -8 -5 -8 -17 1 -19
-4 -22 -34 -20 -35 2 -35 2 -7 -8 35 -14 40 -55 5 -45 -58 16 -70 15 -30 -3
23 -11 42 -27 42 -36 0 -8 -4 -15 -8 -15 -5 0 -7 -14 -4 -30 4 -26 2 -29 -14
-24 -16 6 -17 5 -6 -7 19 -21 16 -52 -5 -45 -17 6 -17 5 0 -8 22 -17 23 -51 1
-42 -9 3 -34 9 -57 12 -55 7 -28 -11 31 -21 33 -5 42 -11 42 -26 0 -17 -5 -19
-37 -15 l-38 5 38 -11 c25 -8 37 -17 37 -30 0 -14 -6 -17 -22 -14 -62 13 -120
17 -114 8 3 -5 34 -13 70 -16 l63 -7 -4 -132 c-5 -120 7 -346 23 -439 6 -35 5
-37 -22 -43 -16 -4 -47 -13 -69 -21 l-40 -13 50 6 c28 3 60 9 71 14 19 7 22 3
27 -24 4 -18 9 -41 12 -53 6 -19 2 -22 -56 -28 -35 -3 -68 -11 -74 -17 -7 -8
0 -10 25 -6 112 18 120 18 120 8 0 -6 -25 -23 -57 -36 -31 -14 -54 -28 -51
-31 4 -3 14 -1 25 5 33 18 86 41 88 39 3 -3 65 -189 65 -193 0 -1 -25 -13 -55
-25 -30 -12 -55 -26 -55 -31 0 -8 44 8 93 33 22 11 33 4 52 -33 19 -36 16 -42
-41 -70 -46 -23 -86 -57 -48 -41 11 4 41 19 67 32 40 21 49 22 57 10 11 -18 6
-26 -33 -45 -39 -19 -72 -43 -66 -49 2 -2 29 10 59 28 l55 32 63 -93 c89 -130
163 -190 206 -166 13 7 9 18 -23 73 -20 36 -72 131 -115 213 l-78 147 37 16
c63 26 284 84 405 106 146 26 479 36 631 19 142 -17 148 -18 143 -44 -5 -22
-4 -22 5 0 11 25 46 21 37 -4 -4 -8 -9 -27 -12 -41 -3 -18 1 -13 14 14 19 40
22 42 54 35 29 -6 33 -11 31 -37 l-2 -29 11 25 c7 14 12 26 13 27 0 1 19 -3
42 -9 l42 -10 -16 -40 c-8 -21 -13 -41 -11 -43 3 -3 11 13 18 35 7 22 18 40
25 40 10 0 121 -37 213 -70 l32 -12 -4 -67 -5 -66 10 60 c6 33 12 61 14 63 6
7 45 -19 41 -27 -9 -13 -25 -93 -18 -86 4 4 12 23 17 43 11 38 22 47 43 33 11
-7 10 -16 -8 -51 -12 -23 -19 -44 -17 -47 3 -2 15 16 28 42 26 51 22 52 117
-1 63 -35 69 -42 53 -59 -5 -6 -12 -21 -16 -35 -5 -20 -2 -18 15 10 29 46 29
45 41 33 8 -8 8 -18 0 -34 l-12 -24 17 22 c16 22 44 21 44 -2 0 -6 -9 -20 -20
-30 -11 -10 -20 -22 -20 -27 0 -4 13 6 28 23 l28 32 58 -37 c31 -20 55 -40 52
-45 -3 -5 2 -8 12 -7 10 0 17 -6 16 -15 -1 -10 5 -15 15 -13 19 5 65 -31 57
-45 -3 -5 1 -8 9 -7 8 0 38 -17 65 -39 49 -39 50 -41 44 -80 -3 -22 -7 -82 -7
-134 l-1 -93 -17 48 c-17 52 -60 138 -81 165 -27 34 -91 69 -125 69 -50 0 -99
-27 -124 -66 -11 -19 -27 -34 -35 -34 -18 0 -18 2 7 45 22 37 63 64 114 75 36
7 40 34 5 38 -39 6 -95 -16 -129 -50 -17 -17 -31 -36 -31 -40 0 -5 -8 -26 -18
-47 -13 -27 -16 -45 -10 -62 7 -17 11 -20 17 -10 7 10 12 10 29 0 18 -11 19
-16 7 -48 -7 -20 -19 -35 -26 -33 -7 2 -27 5 -43 8 -26 4 -25 3 9 -10 22 -9
41 -16 43 -16 1 0 2 -7 2 -15 0 -17 -7 -18 -67 -6 -24 5 -43 4 -43 0 0 -5 11
-9 25 -9 43 0 75 -21 75 -49 0 -30 -9 -46 -30 -54 -12 -4 -11 -6 3 -6 10 -1
17 -9 17 -21 0 -12 -7 -20 -17 -21 -17 -1 -17 -2 0 -6 9 -2 17 -13 17 -24 0
-15 -7 -19 -32 -19 -18 0 -40 -5 -48 -10 -10 -7 0 -8 33 -4 43 6 47 5 47 -15
0 -15 -6 -21 -22 -21 -13 0 -29 -4 -37 -9 -8 -5 0 -8 24 -7 55 2 53 -18 -2
-36 l-48 -16 48 5 c43 5 47 4 47 -16 0 -17 -6 -21 -37 -23 l-38 -1 38 -4 c47
-5 49 -29 5 -42 l-33 -10 37 3 36 4 4 -44 3 -44 -37 0 c-20 0 -40 -5 -43 -10
-4 -7 7 -8 33 -4 44 7 47 4 57 -49 6 -32 5 -37 -11 -37 -11 0 -26 -5 -34 -10
-10 -6 -4 -8 21 -4 35 6 36 5 42 -27 3 -19 9 -48 12 -66 6 -25 4 -32 -11 -36
-17 -4 -16 -5 2 -6 16 -1 24 -10 29 -33 5 -18 8 -39 8 -45 0 -7 3 -13 8 -13
20 0 7 -37 -18 -52 -16 -10 -22 -18 -14 -18 8 0 23 7 33 16 16 16 18 15 24 -2
3 -11 10 -27 15 -36 14 -27 11 -34 -17 -47 -15 -6 -24 -14 -22 -17 3 -2 18 1
32 8 35 15 54 -7 29 -34 -9 -10 -11 -18 -5 -18 6 0 12 6 15 13 2 6 6 10 8 7 2
-3 17 -20 33 -38 29 -31 29 -32 10 -48 -18 -15 -18 -15 3 -5 16 8 28 7 50 -4
15 -8 38 -15 50 -15 52 0 125 102 151 210 43 178 35 494 -19 759 -23 114 -23
119 1 59 53 -130 148 -252 270 -346 47 -36 89 -69 94 -73 5 -4 2 -25 -8 -49
-9 -22 -16 -43 -16 -46 0 -14 19 9 34 41 18 37 24 37 71 1 20 -15 20 -15 0
-16 -25 0 -155 -61 -155 -72 0 -11 28 -3 90 25 86 38 95 38 130 2 l32 -33 -34
-6 c-71 -14 -188 -50 -188 -59 0 -4 8 -6 18 -3 9 2 44 10 77 16 33 6 77 17 99
23 37 11 40 10 62 -18 l24 -30 -53 -14 c-78 -20 -197 -64 -197 -73 0 -9 60 1
75 13 6 4 28 11 50 15 22 4 60 15 84 26 53 22 64 16 85 -50 24 -73 47 -195 39
-203 -5 -4 -30 -13 -58 -20 -27 -6 -66 -17 -85 -25 -20 -7 -71 -12 -120 -12
-66 1 -95 -3 -131 -19 -92 -41 -132 -139 -91 -219 52 -102 192 -175 339 -177
40 -1 70 -3 68 -5 -1 -2 -46 -7 -99 -12 -96 -9 -146 -25 -130 -40 13 -11 313
32 339 49 6 3 -11 8 -36 11 l-47 5 49 22 49 22 -6 -82 c-9 -126 -22 -233 -40
-329 -16 -82 -18 -86 -39 -78 -12 4 -53 16 -91 25 -38 10 -80 23 -94 30 -14 7
-52 16 -85 20 -54 7 -59 6 -47 -8 7 -8 32 -19 55 -22 23 -4 54 -14 69 -21 15
-8 44 -17 65 -20 21 -3 62 -12 91 -21 41 -11 52 -18 48 -31 -3 -9 -10 -36 -17
-59 -13 -46 -23 -51 -55 -29 -11 8 -40 19 -64 26 -25 6 -56 19 -69 27 -31 20
-138 53 -145 45 -13 -12 -4 -21 32 -32 20 -7 60 -23 87 -35 28 -13 82 -33 120
-45 39 -13 71 -24 73 -25 11 -10 -141 -355 -157 -355 -11 0 -67 26 -136 62
-132 70 -185 90 -185 69 0 -13 95 -64 258 -137 l54 -24 -28 -48 c-23 -39 -48
-78 -116 -176 -4 -7 -14 -4 -25 7 -51 49 -210 167 -225 167 -23 0 -2 -29 42
-58 28 -18 50 -37 50 -42 0 -4 32 -29 70 -55 l70 -47 -36 -44 -36 -44 -47 37
c-25 20 -56 47 -68 59 -31 31 -93 67 -101 59 -4 -4 6 -17 22 -29 16 -11 44
-34 61 -51 18 -16 51 -43 74 -58 22 -16 41 -32 41 -36 0 -4 -17 -24 -38 -44
l-38 -38 -79 76 c-74 70 -95 86 -95 68 0 -5 37 -43 82 -85 l82 -77 -29 -31
c-16 -16 -32 -30 -36 -30 -4 0 -44 34 -90 76 -90 81 -115 99 -123 86 -5 -9
115 -130 157 -157 35 -22 33 -34 -8 -68 -39 -32 -32 -36 -118 66 -27 31 -55
57 -64 57 -16 0 2 -24 90 -122 l38 -42 -30 -29 -29 -30 -34 39 c-73 85 -97
109 -102 103 -3 -3 21 -39 55 -79 l61 -72 -28 -24 c-16 -13 -32 -23 -35 -24
-3 0 -27 29 -54 65 -44 60 -65 78 -65 56 0 -6 4 -12 9 -15 4 -3 27 -30 51 -61
41 -53 42 -56 24 -70 -10 -8 -22 -15 -26 -15 -3 0 -39 30 -78 66 -40 36 -75
63 -78 59 -3 -3 25 -37 63 -75 l68 -68 -34 -21 c-28 -18 -35 -19 -37 -6 -2 8
-8 15 -13 15 -5 0 -18 17 -29 37 -27 52 -48 78 -57 70 -3 -4 3 -21 15 -37 12
-16 22 -32 22 -35 0 -4 11 -21 25 -39 l25 -33 -26 -17 c-24 -17 -26 -17 -40 1
-7 10 -14 23 -14 28 -1 21 -43 99 -47 88 -2 -6 9 -41 26 -77 l30 -66 -29 -15
c-29 -15 -30 -15 -43 17 -8 18 -17 44 -20 58 -8 30 -24 56 -31 49 -4 -3 20
-67 50 -134 4 -10 -75 -55 -96 -55 -6 0 -22 25 -36 55 -26 54 -44 77 -44 56 0
-6 13 -35 30 -66 28 -52 29 -55 10 -65 -32 -17 -39 -12 -55 43 -8 28 -20 59
-25 67 -18 27 -12 -15 10 -72 15 -40 17 -54 7 -60 -21 -13 -31 -4 -67 61 -43
78 -52 64 -12 -18 31 -61 31 -71 1 -71 -13 0 -27 19 -45 57 -15 32 -29 52 -31
46 -3 -7 7 -35 21 -63 l26 -51 -27 -10 c-27 -10 -42 0 -43 28 0 18 -20 66 -25
61 -3 -3 1 -26 9 -52 12 -41 12 -48 0 -53 -22 -8 -44 4 -44 25 0 10 -7 27 -15
38 -13 17 -13 14 0 -25 8 -24 14 -45 13 -46 -2 -2 -13 -6 -25 -9 -19 -6 -23
-2 -33 33 -6 22 -15 43 -20 46 -5 3 -3 -15 5 -40 11 -40 11 -47 -1 -52 -25 -9
-44 5 -44 35 0 15 -7 37 -15 48 -18 24 -19 10 -1 -48 l13 -46 -28 -4 c-27 -4
-29 -2 -29 26 0 17 -4 37 -9 45 -5 8 -7 -5 -3 -34 5 -47 5 -48 -22 -43 -14 3
-26 1 -26 -4 0 -5 -12 -8 -27 -6 -23 3 -29 9 -34 41 -9 58 -23 58 -15 0 6 -48
5 -53 -12 -53 -15 0 -21 10 -26 39 -3 22 -11 43 -17 47 -7 4 -9 0 -6 -12 19
-70 19 -74 -8 -74 -21 0 -25 4 -20 19 3 10 1 29 -4 42 -8 21 -10 17 -10 -23
l-1 -48 -44 0 c-40 0 -45 3 -55 32 -6 17 -13 29 -16 26 -3 -3 -1 -17 4 -32 9
-23 8 -26 -9 -26 -14 0 -20 7 -21 23 l-2 22 -4 -22 c-6 -30 -36 -30 -52 0
l-12 22 5 -23 c5 -23 4 -24 -72 -17 -221 18 -462 69 -642 134 -221 81 -486
232 -675 386 -144 116 -139 102 -64 182 35 37 48 55 29 38 -19 -16 -49 -46
-67 -65 l-33 -35 -76 75 c-156 154 -309 368 -419 587 -48 95 -61 130 -53 140
8 10 7 13 -5 13 -16 0 -51 75 -42 91 4 5 2 9 -3 9 -5 0 -12 8 -15 19 -4 16 4
19 82 24 136 10 189 28 239 82 45 51 55 85 22 85 -10 0 -54 -5 -96 -11 -67
-10 -79 -10 -88 3 -6 9 -26 37 -44 63 -18 26 -35 45 -38 42 -3 -3 11 -28 30
-56 20 -28 36 -55 36 -61 0 -13 -90 -13 -91 0 -1 6 -2 13 -3 18 -1 4 -6 26
-10 49 -4 24 -13 46 -18 49 -7 5 -9 -3 -4 -22 3 -16 9 -47 13 -68 l6 -39 -84
7 c-46 4 -92 10 -103 13 -12 3 -16 1 -11 -6 4 -8 -1 -10 -17 -7 -12 3 -52 8
-88 11 -206 19 -447 114 -558 219 -49 45 -117 143 -152 217 -36 77 -59 217
-38 230 8 6 9 9 1 9 -17 0 11 109 47 182 152 307 530 534 915 550 44 1 82 6
85 10 3 4 48 12 99 18 148 17 174 46 60 67 -35 7 -72 17 -81 23 -13 7 -18 7
-18 -2 0 -6 -3 -9 -6 -5 -16 16 159 302 271 442 63 80 244 275 255 275 4 0 10
-9 13 -21 5 -17 2 -20 -14 -16 -10 3 -19 1 -19 -3 0 -5 -8 -11 -17 -13 -10 -3
1 -5 25 -6 58 -1 54 -29 -6 -49 -24 -8 -41 -17 -38 -20 3 -3 24 1 47 8 35 12
42 12 50 -1 14 -22 11 -27 -27 -39 -44 -15 -40 -23 6 -10 38 11 35 12 44 -16
6 -19 0 -23 -41 -34 -55 -16 -44 -25 15 -12 33 8 42 7 46 -5 10 -26 7 -31 -24
-38 -16 -4 -33 -11 -36 -17 -4 -6 -3 -8 3 -5 5 3 23 9 40 11 25 5 32 1 41 -18
10 -22 8 -25 -34 -36 -24 -7 -47 -17 -50 -21 -7 -11 -8 -11 48 6 45 13 48 13
58 -5 14 -27 15 -26 -35 -39 -25 -6 -45 -14 -45 -16 0 -5 8 -4 71 9 23 5 28 1
44 -34 l18 -40 -44 -41 c-46 -42 -37 -43 18 -2 l32 24 11 -21 c14 -26 14 -26
-47 -55 -30 -15 -40 -24 -28 -24 11 0 29 6 39 14 18 14 66 21 66 11 0 -2 3
-11 6 -19 3 -9 0 -17 -8 -20 -7 -2 -5 -3 4 -2 9 2 25 -6 34 -16 24 -26 43 -24
54 7 21 53 12 111 -30 194 -200 398 -300 873 -301 1429 0 384 72 807 166 967
43 73 74 85 212 82 89 -2 131 1 173 14 77 24 104 20 108 -14z m3178 -1696 c7
-4 14 -18 17 -32 4 -25 4 -25 6 3 1 28 9 31 49 21 17 -5 22 -14 24 -43 l1 -36
4 33 c3 25 9 32 27 32 33 0 38 -10 19 -34 -16 -18 -14 -18 8 1 22 20 28 21 44
9 18 -13 18 -16 -18 -55 -53 -59 -46 -64 12 -7 l49 48 55 -31 c103 -59 204
-186 238 -300 12 -41 12 -44 -12 -62 -13 -10 -30 -19 -38 -19 -15 0 -169 -76
-185 -91 -5 -5 -8 -11 -5 -13 6 -6 67 14 89 29 28 18 170 73 174 66 2 -3 7
-32 10 -63 8 -65 15 -61 -84 -63 -100 -3 -200 -18 -218 -32 -15 -12 3 -13 123
-8 77 3 150 8 163 11 24 5 25 1 16 -68 l-6 -45 -59 3 c-32 2 -62 4 -66 5 -4 1
-41 1 -81 0 -116 -2 -75 -17 65 -25 70 -3 129 -8 131 -11 2 -2 1 -25 -3 -50
l-7 -47 -66 3 c-37 2 -94 2 -127 0 -53 -2 -57 -4 -30 -12 17 -5 72 -10 123
-11 50 -1 92 -4 92 -6 0 -2 -7 -28 -16 -58 -16 -56 -28 -64 -65 -43 -11 5 -46
15 -77 20 -31 5 -72 13 -89 16 -37 6 -46 -11 -10 -20 12 -3 51 -13 87 -22 36
-9 80 -19 98 -22 19 -3 31 -10 29 -17 -2 -6 -10 -28 -18 -48 -15 -43 -20 -45
-63 -19 -46 27 -175 75 -183 68 -8 -9 -14 -6 97 -60 52 -26 101 -51 108 -55
11 -7 2 -32 -38 -113 -58 -116 -135 -239 -149 -239 -5 0 -25 7 -44 15 -20 8
-44 15 -54 15 -10 -1 6 -9 36 -20 65 -23 65 -24 47 -39 -12 -10 -23 -10 -51
-1 -19 6 -41 9 -48 7 -6 -3 -3 -6 8 -7 11 0 30 -6 43 -14 21 -11 22 -14 8 -25
-13 -11 -23 -10 -57 3 -22 9 -38 12 -34 6 3 -5 12 -10 19 -10 7 0 20 -6 30
-13 17 -12 15 -16 -25 -55 -48 -45 -52 -43 -63 28 -16 108 -48 222 -59 211
-18 -18 -22 -13 -24 30 -5 85 -77 165 -273 307 -214 154 -314 288 -342 455
-22 132 52 348 152 447 87 86 228 152 362 169 85 11 111 12 124 3z m-1123
-541 c-4 -17 -8 -18 -23 -8 -22 13 -17 27 10 27 13 0 17 -5 13 -19z m384 -183
c-3 -8 -6 -5 -6 6 -1 11 2 17 5 13 3 -3 4 -12 1 -19z m-5422 -768 c-3 -5 -10
-10 -16 -10 -5 0 -9 5 -9 10 0 6 7 10 16 10 8 0 12 -4 9 -10z m-35 -14 c0 -13
-17 -25 -31 -22 -3 0 -17 -12 -31 -28 l-25 -29 -11 33 c-7 18 -14 31 -17 28
-3 -3 -1 -18 5 -33 9 -25 8 -32 -13 -53 l-24 -24 -6 58 c-3 32 -5 60 -3 61 6
6 90 21 124 22 21 1 32 -4 32 -13z m-168 -68 l4 -63 -116 -120 c-227 -236
-396 -499 -470 -730 -18 -55 -31 -81 -43 -83 -15 -3 -17 2 -13 35 2 21 8 64
12 96 4 36 3 57 -3 57 -11 0 -23 -77 -23 -142 0 -41 -11 -52 -40 -43 -18 6
-20 15 -20 100 0 52 -4 97 -10 100 -6 4 -10 -30 -10 -94 l0 -101 -76 0 c-67 0
-75 2 -70 18 11 40 18 177 8 167 -6 -5 -14 -48 -19 -95 l-8 -85 -60 0 c-53 0
-60 2 -62 20 -1 11 -4 51 -7 89 -10 106 -28 120 -22 16 3 -47 8 -95 12 -107 6
-21 3 -23 -34 -23 -45 0 -43 -8 -27 123 4 32 3 57 -3 61 -10 6 -22 -70 -22
-141 0 -41 -2 -43 -29 -43 l-29 0 2 78 c2 77 3 78 90 236 129 234 265 434 286
421 6 -4 10 3 10 13 0 23 31 53 37 36 2 -6 11 -20 19 -30 15 -19 15 -18 9 1
-17 53 -16 71 4 89 21 19 21 19 21 -15 0 -19 5 -41 11 -49 7 -11 8 3 4 48 -5
39 -3 62 3 62 6 0 17 3 26 6 14 5 16 -4 16 -60 0 -36 4 -66 9 -66 5 0 9 30 8
67 -2 56 1 68 15 71 17 3 21 -8 33 -100 3 -27 10 -48 15 -48 8 0 4 56 -10 120
l-7 36 201 49 c166 40 337 79 368 84 3 1 8 -27 10 -61z m260 -40 c-9 -51 -20
-96 -25 -99 -5 -4 -5 -9 1 -13 15 -9 3 -38 -12 -29 -6 3 -6 1 2 -8 6 -7 12
-35 12 -61 0 -43 -2 -48 -22 -49 -17 -1 -18 -3 -6 -6 15 -4 18 -17 17 -99 0
-65 -4 -94 -12 -94 -9 0 -9 -2 0 -8 7 -4 16 -40 21 -80 7 -62 6 -72 -7 -73
-14 -1 -14 -2 0 -6 12 -3 21 -28 33 -92 20 -109 20 -104 -3 -98 -16 4 -20 -3
-25 -41 -3 -24 -6 -60 -6 -78 0 -33 -1 -34 -43 -34 l-43 0 7 53 c4 28 8 70 8
92 0 35 -1 37 -10 17 -5 -13 -12 -55 -15 -93 -7 -67 -8 -69 -34 -69 -24 0 -28
5 -34 38 -3 20 -6 51 -6 67 -1 17 -7 44 -15 60 -14 29 -14 27 -9 -34 4 -35 10
-78 15 -94 5 -17 7 -32 5 -35 -2 -2 -25 0 -51 4 l-47 7 6 36 c3 20 10 59 15
86 5 28 5 54 1 59 -5 5 -12 -9 -15 -30 -4 -22 -11 -52 -16 -68 -5 -16 -9 -42
-9 -57 0 -27 -3 -29 -36 -29 l-37 0 6 43 c4 23 9 63 13 90 4 29 3 47 -4 47 -5
0 -13 -30 -17 -67 -10 -101 -14 -113 -39 -113 -18 0 -24 9 -34 53 -6 29 -12
62 -12 73 0 11 -7 29 -15 40 -13 17 -14 16 -9 -21 4 -22 12 -64 19 -92 l13
-53 -47 0 -47 0 7 68 c11 92 11 132 0 132 -5 0 -12 -37 -16 -82 -10 -127 0
-118 -122 -118 -57 0 -103 3 -101 8 40 84 58 102 58 60 0 -13 5 -30 11 -38 7
-11 8 1 4 41 -7 54 -6 57 56 160 100 167 168 267 261 383 105 131 315 349 328
341 6 -4 10 0 10 8 0 8 9 22 19 31 18 16 19 16 29 -11 10 -27 10 -27 11 14 1
23 7 44 14 46 6 3 12 6 13 6 0 1 -6 -41 -14 -91z m-1057 -98 c-3 -5 -10 -10
-16 -10 -5 0 -9 5 -9 10 0 6 7 10 16 10 8 0 12 -4 9 -10z m-39 -11 c3 -6 -3
-20 -14 -32 l-21 -21 -9 25 c-6 16 -6 26 2 31 16 11 34 10 42 -3z m-46 -60 c0
-8 -11 -26 -24 -38 l-25 -23 -4 28 c-4 27 -4 27 -3 -3 0 -25 -15 -53 -66 -120
-132 -176 -236 -376 -279 -536 l-24 -88 -50 7 c-27 3 -51 7 -52 8 0 0 4 43 9
94 10 84 7 115 -7 100 -3 -3 -8 -48 -12 -102 l-6 -96 -29 0 c-27 0 -29 3 -24
28 10 54 11 190 0 179 -7 -7 -11 -49 -13 -139 l-1 -68 -222 1 c-123 0 -242 4
-265 7 l-41 7 18 35 c18 33 19 34 21 10 1 -16 4 -10 10 19 8 40 75 167 215
406 29 50 60 99 68 110 15 20 15 19 16 -5 1 -14 6 -34 11 -45 6 -14 8 -3 6 40
l-2 59 68 19 c38 10 75 16 82 14 7 -3 15 -26 17 -52 3 -26 11 -52 18 -58 13
-12 13 -15 -5 84 -5 29 -3 38 11 43 23 9 34 -10 34 -61 0 -23 4 -44 8 -47 5
-3 8 23 8 57 -1 57 1 62 22 65 20 3 22 -1 22 -40 0 -24 5 -50 11 -58 8 -11 9
2 4 46 -5 55 -4 62 13 66 16 4 22 -2 31 -32 6 -20 11 -47 11 -58 0 -11 5 -24
10 -27 13 -8 13 11 -3 72 -12 45 -12 53 0 58 26 9 30 5 48 -50 9 -30 21 -57
26 -61 12 -7 12 -7 -12 55 -11 30 -16 57 -12 61 4 4 28 12 53 18 49 12 60 6
60 -35 0 -27 21 -81 26 -68 2 6 -2 34 -9 62 -15 58 -14 63 20 63 19 0 23 -5
24 -32 0 -18 5 -42 10 -53 7 -14 8 -3 4 36 -4 46 -2 58 11 63 25 10 31 0 36
-54 3 -28 10 -56 17 -63 8 -8 9 1 4 38 -12 88 -12 88 37 100 41 11 46 10 57
-9 7 -12 12 -28 13 -37z m7242 -71 l5 -47 -40 35 c-23 19 -64 45 -92 58 l-50
24 30 7 c17 3 53 14 80 23 l50 17 6 -35 c4 -19 9 -56 11 -82z m158 -13 c8 -11
13 -21 12 -23 -2 -2 7 -12 20 -22 20 -17 21 -21 8 -30 -12 -8 -11 -10 6 -10
13 0 24 -8 27 -19 6 -25 0 -31 -32 -31 -14 0 -33 -5 -41 -10 -10 -6 2 -8 36
-4 46 6 52 4 57 -15 4 -18 1 -21 -31 -22 -21 -1 -48 -5 -62 -10 -18 -6 -7 -8
39 -6 l65 2 39 -120 c43 -132 79 -336 122 -689 22 -184 48 -322 80 -421 5 -16
5 -17 -4 -4 -5 8 -21 49 -35 90 -26 80 -79 408 -70 434 3 8 2 15 -3 15 -5 0
-14 20 -20 45 -9 39 -8 45 6 46 12 0 10 3 -5 9 -12 5 -25 24 -32 48 -16 52
-15 60 6 65 10 3 6 5 -10 6 -16 0 -28 5 -28 10 0 5 -3 16 -6 25 -4 12 0 16 17
17 20 1 19 2 -6 8 -43 9 -43 34 0 50 46 16 39 26 -9 13 -31 -9 -38 -8 -46 7
-11 22 -4 31 25 31 12 0 30 7 41 16 18 15 18 15 -8 10 -16 -3 -39 -9 -53 -12
-18 -4 -27 -1 -31 10 -8 21 -3 26 32 32 45 8 43 17 -2 10 -36 -5 -42 -3 -47
14 -4 16 1 21 21 26 50 10 70 24 27 18 -22 -4 -44 -7 -49 -8 -19 -2 -18 34 1
40 48 16 73 27 69 32 -3 2 -28 -4 -57 -14 -40 -15 -53 -16 -56 -6 -3 6 -9 12
-14 12 -6 0 -18 8 -28 18 -16 14 -19 41 -25 184 -3 92 -9 175 -13 185 -5 14 0
12 23 -7 16 -14 35 -34 44 -45z m-400 31 c42 -6 130 -46 130 -58 0 -5 -7 -11
-15 -14 -8 -4 -15 -11 -15 -17 0 -6 11 0 24 12 33 31 43 10 17 -34 -11 -19
-17 -35 -13 -35 4 0 15 14 24 30 9 17 22 30 27 30 14 0 59 -61 72 -99 10 -27
8 -35 -7 -53 -21 -23 -81 -51 -93 -44 -5 3 -11 23 -15 45 -3 22 -11 43 -18 47
-8 5 -9 2 -4 -12 4 -10 10 -34 13 -53 5 -28 3 -33 -13 -29 -10 1 -22 14 -26
28 -7 24 -8 24 -4 -2 3 -24 0 -28 -20 -28 -21 0 -24 5 -24 40 0 22 -4 40 -9
40 -5 0 -7 -18 -4 -39 5 -37 4 -39 -17 -34 -20 5 -21 10 -15 50 4 28 3 43 -3
39 -5 -3 -9 -17 -9 -32 0 -14 -5 -30 -11 -36 -16 -16 -109 32 -157 82 -50 51
-55 105 -14 146 41 41 90 48 199 30z m-5360 -110 c0 -19 3 -41 6 -50 4 -11 0
-16 -12 -16 -16 0 -19 9 -21 50 -2 38 1 50 12 50 10 0 15 -11 15 -34z m-2499
6 c-5 -10 -17 -24 -25 -32 -14 -11 -16 -9 -16 13 0 24 11 35 38 36 9 1 10 -4
3 -17z m2387 -27 c-1 -29 -4 -41 -9 -33 -7 10 -9 10 -9 -1 0 -11 -3 -12 -11
-4 -7 7 -9 20 -5 30 6 15 8 15 16 3 6 -9 10 -10 10 -3 0 6 -4 15 -10 18 -15
10 -12 35 5 35 12 0 15 -11 13 -45z m64 0 c2 -31 -1 -45 -9 -45 -8 0 -13 12
-13 29 0 17 -4 33 -10 36 -17 10 -11 25 9 25 15 0 20 -9 23 -45z m-175 8 c-3
-15 -1 -36 4 -45 8 -15 6 -18 -11 -18 -21 0 -29 20 -7 20 6 0 4 5 -5 11 -26
15 -24 59 3 59 18 0 20 -5 16 -27z m60 -13 c-2 -30 -6 -40 -19 -40 -14 0 -16
6 -11 32 4 22 3 29 -5 24 -7 -4 -12 -1 -12 8 0 10 9 16 24 16 22 0 24 -4 23
-40z m-2387 -1 c0 -21 -28 -75 -91 -175 -50 -80 -102 -169 -115 -197 -13 -29
-22 -42 -19 -30 3 12 2 24 -3 27 -5 3 -13 -18 -16 -47 -4 -28 -12 -74 -18
-101 l-10 -49 -336 6 c-184 4 -337 9 -339 11 -3 2 8 24 23 48 l28 43 7 -33
c11 -54 22 -51 14 5 -7 50 -5 54 66 183 57 102 75 127 81 113 6 -14 7 -13 6 7
0 14 3 34 7 44 8 18 9 18 22 0 7 -10 13 -28 13 -40 0 -13 5 -26 12 -30 7 -5 9
-2 5 9 -3 8 -9 31 -12 50 -6 29 -4 35 14 40 16 4 22 0 26 -19 3 -13 7 -36 10
-50 4 -15 8 -24 11 -21 3 2 0 24 -5 48 -7 32 -7 46 2 51 21 14 27 9 33 -32 4
-22 13 -48 20 -57 17 -23 17 -7 0 50 -9 29 -10 49 -5 53 19 11 37 -5 44 -38
11 -55 16 -68 25 -68 6 0 6 10 1 23 -4 12 -11 39 -15 60 -7 35 -5 37 19 37 22
0 25 -4 25 -32 0 -18 5 -40 11 -48 8 -11 9 -1 5 36 -5 42 -3 53 10 58 24 9 34
-2 34 -39 0 -19 5 -37 10 -40 7 -4 9 2 6 17 -13 57 -11 72 8 76 10 2 22 -2 27
-10 7 -10 9 -9 9 5 0 13 6 17 23 15 17 -2 24 -13 32 -45 6 -23 13 -45 17 -48
4 -4 1 18 -6 48 -12 53 -12 56 8 61 22 6 36 -8 36 -36 0 -24 22 -75 26 -63 3
6 -2 32 -10 57 -12 41 -12 47 1 52 27 11 33 6 44 -39 6 -25 15 -48 20 -51 12
-7 11 -4 -6 46 -20 57 -19 62 12 58 24 -3 29 -9 34 -41 3 -21 12 -43 18 -50
10 -9 11 -6 5 18 -4 17 -11 41 -16 54 -10 28 -9 30 23 33 21 3 24 -2 27 -32 2
-19 8 -39 13 -44 11 -12 11 -3 0 46 -10 42 -7 48 26 48 19 0 23 -5 23 -31z
m2577 -31 c-3 -8 -6 -5 -6 6 -1 11 2 17 5 13 3 -3 4 -12 1 -19z m-3337 -112
c0 -3 -4 -8 -10 -11 -5 -3 -10 -1 -10 4 0 6 5 11 10 11 6 0 10 -2 10 -4z m-35
-16 c8 -12 -56 -103 -65 -93 -4 5 -13 23 -20 41 -11 29 -11 35 1 43 8 5 19 7
26 4 7 -2 15 0 18 5 8 13 32 13 40 0z m-91 -69 l16 -49 -43 -74 c-24 -40 -54
-103 -68 -140 l-24 -68 -115 0 c-63 0 -121 4 -128 8 -12 8 -12 22 3 113 4 27
3 49 -3 53 -9 5 -22 -68 -22 -131 l0 -33 -74 0 c-83 0 -81 -1 -92 82 -9 70
-27 100 -20 33 3 -27 10 -65 15 -82 l10 -33 -90 0 -89 0 0 65 c0 36 4 65 10
65 5 0 3 17 -5 39 -7 22 -11 42 -8 45 14 14 33 4 33 -16 0 -13 5 -30 10 -38 7
-11 9 -4 7 25 -1 30 2 40 15 43 12 2 18 -5 21 -30 l4 -33 1 36 2 36 105 22
c57 12 109 20 114 17 5 -4 15 -22 21 -42 7 -19 14 -33 16 -31 2 2 -2 22 -10
44 -13 38 -13 41 4 46 24 6 30 0 30 -32 0 -14 4 -32 9 -40 7 -10 9 1 8 35 -2
38 1 49 13 49 10 0 16 -13 19 -40 l5 -40 5 45 c7 56 33 62 43 10 l6 -35 -1 40
c-2 38 0 40 37 48 43 11 55 1 56 -43 0 -14 5 -32 11 -40 11 -16 8 14 -7 75 -6
26 -5 28 19 23 15 -3 24 -2 22 3 -3 4 7 10 22 12 69 10 70 10 87 -42z m3585
-106 c23 -39 22 -40 -41 -49 -42 -5 -52 10 -13 20 14 3 25 10 25 14 0 5 3 17
6 27 5 13 2 12 -10 -4 -21 -28 -36 -30 -36 -5 0 45 42 43 69 -3z m5621 -37 c0
-13 -60 -9 -62 5 0 6 -2 25 -3 40 l-2 28 33 -32 c19 -18 34 -37 34 -41z
m-5760 47 c0 -8 7 -15 15 -15 9 0 12 6 9 15 -4 9 0 15 9 15 19 0 26 -19 20
-52 -7 -34 5 -40 63 -29 37 7 52 6 62 -3 11 -10 -2 -15 -70 -24 -111 -16 -128
-15 -144 6 -13 16 -13 16 -14 0 0 -14 -8 -18 -35 -18 -26 0 -35 4 -36 18 0 15
-2 14 -10 -3 -7 -16 -8 -13 -4 13 4 28 1 35 -15 39 -12 3 -19 10 -17 16 7 21
24 17 36 -9 6 -15 14 -24 17 -21 3 3 0 15 -6 27 -10 19 -9 21 6 18 10 -2 21
-14 24 -28 4 -15 9 -20 13 -13 4 6 4 18 1 27 -4 10 1 18 12 23 10 4 19 2 22
-5 4 -13 23 -17 21 -4 -3 14 1 22 11 22 6 0 10 -7 10 -15z m-206 -11 c9 -3 16
-15 16 -27 0 -19 -1 -20 -20 -2 -30 27 -28 41 4 29z m-3975 -39 c5 -19 6 -50
1 -71 -5 -21 -7 -52 -4 -71 4 -31 2 -33 -29 -33 -17 0 -49 3 -69 6 -37 6 -37
7 -23 33 7 14 22 35 32 46 10 11 23 31 30 45 10 21 11 14 8 -45 -4 -67 -4 -68
5 -20 5 27 14 51 19 53 8 3 7 10 0 24 -12 22 -4 68 11 68 5 0 13 -16 19 -35z
m3964 -9 c11 -22 22 -34 29 -30 7 4 8 3 4 -4 -8 -13 -40 -17 -33 -4 3 4 -5 16
-16 27 l-20 20 7 -27 c4 -17 2 -28 -4 -28 -5 0 -10 21 -10 46 0 55 17 55 43 0z
m5904 2 c-3 -8 -6 -5 -6 6 -1 11 2 17 5 13 3 -3 4 -12 1 -19z m-10017 -16 c0
-10 -3 -22 -7 -26 -4 -4 -18 -30 -31 -59 l-23 -52 6 63 c4 40 2 62 -5 62 -5 0
-10 -23 -10 -52 0 -29 -4 -59 -8 -66 -7 -9 -42 -12 -143 -10 l-134 3 -3 43
c-2 33 0 42 12 42 10 0 16 -9 16 -22 0 -13 5 -30 11 -38 8 -11 9 -4 5 28 -6
38 -4 43 11 40 12 -2 20 -16 24 -41 9 -58 22 -58 17 1 -6 61 15 75 26 17 4
-19 11 -37 17 -41 10 -6 2 64 -8 76 -6 6 162 47 200 49 20 1 27 -4 27 -17z
m10129 -82 c18 -49 30 -94 26 -100 -3 -5 -2 -10 3 -10 10 0 38 -87 31 -95 -2
-2 -26 -5 -54 -7 -40 -2 -50 0 -53 14 -2 11 6 18 27 23 17 4 33 11 36 16 8 11
-2 11 -42 0 -31 -9 -32 -8 -47 37 -9 25 -16 47 -16 49 0 2 15 3 33 3 17 0 39
5 47 11 11 8 1 9 -37 6 -48 -4 -73 5 -73 25 0 4 17 8 38 8 20 0 44 5 52 10 10
7 -3 8 -42 4 -63 -6 -64 -5 -52 54 5 27 11 31 43 35 20 2 39 4 42 5 4 1 21
-38 38 -88z m-5949 59 c0 -5 -4 -9 -10 -9 -5 0 -10 7 -10 16 0 8 5 12 10 9 6
-3 10 -10 10 -16z m-4558 -74 c3 -23 0 -35 -8 -35 -13 0 -24 22 -24 51 0 35
28 21 32 -16z m-50 -5 c3 -21 0 -30 -10 -30 -8 0 -12 6 -9 15 4 8 2 17 -3 20
-15 9 -12 25 4 25 8 0 16 -13 18 -30z m-44 -4 l0 -25 -112 1 -111 0 100 23
c127 29 123 29 123 1z m4335 -36 c10 -33 17 -62 17 -65 0 -3 -16 -5 -35 -5
-35 0 -35 1 -35 43 0 102 29 116 53 27z m-1493 -12 c0 -35 -2 -38 -29 -38
l-30 0 21 51 c23 56 38 51 38 -13z m2273 2 c5 -19 7 -47 5 -62 -3 -19 0 -28 9
-28 13 0 12 37 -4 94 -5 18 -5 18 21 0 19 -14 25 -25 21 -41 -3 -12 -1 -25 5
-28 5 -3 10 1 10 9 0 9 9 16 21 16 11 0 17 -4 14 -10 -4 -6 6 -10 22 -10 21 0
6 -10 -56 -37 -67 -29 -85 -33 -91 -22 -5 7 -5 18 0 24 12 14 0 105 -14 105
-8 0 -10 -13 -8 -36 3 -26 1 -35 -7 -30 -17 11 -14 -29 4 -44 30 -25 18 -39
-32 -37 -51 2 -48 -2 -52 70 -1 9 -6 17 -12 17 -8 0 -9 -15 -5 -45 7 -41 5
-45 -14 -45 -18 0 -20 4 -13 42 6 40 5 42 -11 26 -11 -12 -15 -25 -10 -43 5
-19 2 -25 -10 -25 -12 0 -16 9 -16 34 0 18 -3 47 -6 63 l-6 30 74 12 c40 7 87
18 103 26 40 18 48 15 58 -25z m-553 -11 c0 20 4 22 26 17 44 -11 217 -24 252
-19 l32 5 0 -66 c0 -57 -2 -66 -18 -66 -15 0 -18 6 -14 30 3 18 0 30 -7 30 -6
0 -11 -13 -11 -30 0 -46 -14 -36 -35 25 -10 30 -21 55 -25 55 -4 0 1 -24 11
-52 18 -52 18 -53 -2 -56 -26 -5 -29 -1 -36 40 -7 52 -21 55 -16 4 5 -42 4
-46 -16 -46 -18 0 -21 6 -21 39 0 22 -4 42 -9 45 -5 3 -6 -14 -4 -39 5 -41 4
-43 -16 -38 -13 3 -21 14 -22 27 0 11 -4 30 -9 41 -6 14 -7 6 -3 -22 5 -38 3
-43 -14 -43 -15 0 -23 11 -32 41 -7 23 -15 38 -18 35 -3 -3 -1 -19 5 -35 10
-29 10 -31 -15 -31 -25 0 -26 2 -19 46 3 26 6 59 7 73 l1 26 13 -30 c13 -28
14 -28 15 -6z m5897 -31 c-3 -8 -6 -5 -6 6 -1 11 2 17 5 13 3 -3 4 -12 1 -19z
m13 -77 c0 -11 -6 -22 -12 -24 -8 -3 -6 -6 5 -6 10 -1 17 -9 17 -21 0 -16 -7
-20 -31 -20 -31 0 -31 1 -24 37 8 46 12 53 31 53 8 0 14 -9 14 -19z m-4990
-36 c46 -14 93 -25 104 -25 21 -1 21 -1 1 -12 -11 -6 -45 -31 -77 -55 -149
-114 -363 -172 -588 -160 -102 5 -246 31 -263 47 -5 4 -5 28 -2 54 7 43 9 46
37 46 27 0 30 -3 23 -22 -4 -13 -9 -36 -12 -53 -3 -22 -2 -26 6 -15 5 8 13 32
16 52 6 34 10 38 36 38 29 0 29 0 29 -59 0 -33 5 -63 11 -67 7 -4 10 14 7 60
-3 66 -3 66 24 66 28 0 28 0 43 -92 9 -54 27 -60 19 -6 -3 24 -10 55 -14 71
-8 25 -7 27 20 27 24 0 31 -5 35 -27 12 -57 29 -103 37 -103 5 0 7 8 4 18 -16
52 -24 108 -17 115 20 20 44 0 63 -51 24 -65 37 -62 14 4 -9 26 -15 48 -13 49
1 1 14 5 28 8 25 6 27 4 32 -39 2 -25 10 -51 16 -57 7 -7 9 4 4 42 -6 54 2 70
36 71 10 0 12 -8 8 -29 -3 -15 -2 -41 2 -57 7 -25 9 -21 15 32 5 50 11 63 27
67 22 6 24 2 34 -55 3 -21 11 -40 17 -44 7 -5 9 1 5 17 -20 82 -19 96 2 102
17 4 23 -2 33 -36 6 -23 15 -46 20 -52 4 -5 1 15 -8 44 -8 29 -14 54 -12 54 2
1 26 14 53 29 28 15 53 27 56 27 3 1 43 -10 89 -24z m5190 -14 c0 -5 2 -15 5
-23 4 -10 -6 -13 -42 -12 -27 1 -51 3 -55 3 -5 1 -8 10 -8 21 0 17 7 20 50 20
28 0 50 -4 50 -9z m-6535 -21 c3 -5 12 -7 20 -3 11 4 15 -3 15 -26 0 -17 -4
-31 -9 -31 -13 0 -32 26 -24 34 4 4 1 5 -7 2 -8 -3 -26 3 -40 14 l-25 20 32 0
c17 0 34 -4 38 -10z m93 -13 c7 -8 6 -18 -4 -31 -21 -30 -17 -42 5 -15 18 22
21 23 36 8 14 -14 15 -21 5 -39 -6 -12 -9 -24 -7 -27 3 -2 8 5 12 16 7 24 15
26 37 9 12 -10 14 -19 7 -36 l-9 -23 -37 20 c-82 43 -105 75 -89 118 7 17 30
17 44 0z m1589 -13 c16 -3 26 -16 34 -44 15 -50 26 -42 -206 -158 -289 -145
-442 -189 -682 -199 l-143 -6 0 62 c0 59 1 62 22 59 17 -2 24 -13 30 -43 5
-22 13 -44 19 -50 11 -10 7 26 -7 78 -4 13 1 17 25 17 29 0 31 -3 31 -34 0
-19 5 -38 10 -41 7 -4 8 8 4 34 -6 39 -5 41 19 41 22 0 26 -5 31 -45 4 -24 12
-47 17 -51 6 -4 8 12 3 45 -4 33 -3 51 4 51 6 0 17 3 26 6 12 5 16 0 16 -17 1
-27 29 -83 30 -59 0 8 -4 30 -9 48 -9 31 -9 32 20 32 22 0 29 -5 29 -19 0 -11
4 -23 10 -26 6 -4 7 5 4 24 -5 25 -3 30 17 33 20 2 26 -3 35 -32 l12 -35 1 38
c1 29 6 39 24 46 19 7 23 4 30 -20 10 -38 18 -37 15 2 -2 25 2 33 20 40 19 7
24 5 32 -15 5 -13 14 -27 19 -31 14 -8 14 -2 -1 30 -10 22 -9 28 3 36 22 14
25 12 39 -31 7 -22 17 -40 23 -40 5 0 6 8 2 18 -16 41 -18 74 -4 83 25 16 36
10 43 -23 3 -17 9 -28 12 -25 4 3 2 20 -4 36 -10 27 -8 33 11 46 24 17 28 12
41 -45 3 -14 10 -32 15 -40 18 -28 18 -5 0 50 -16 50 -16 56 -2 73 20 21 28
12 44 -51 14 -51 35 -70 24 -22 -4 18 -13 47 -20 64 -13 30 -12 32 33 79 l47
48 65 -6 c36 -3 75 -8 87 -11z m4668 4 c2 -7 6 -30 10 -50 6 -37 5 -38 -27
-39 l-33 -2 30 -4 c45 -7 63 -42 23 -44 l-23 -2 22 -4 c12 -2 25 -13 28 -24 8
-25 9 -25 -37 -32 -37 -6 -38 -5 -49 36 -6 23 -18 55 -26 71 -12 24 -13 36 -4
68 11 35 15 38 47 38 19 0 36 -6 39 -12z m197 -18 c4 -33 1 -35 -44 -35 -27 0
-48 3 -48 6 0 4 -3 14 -6 23 -5 13 2 16 45 16 28 0 52 -4 53 -10z m-6192 -20
c0 -5 -5 -10 -11 -10 -5 0 -7 -4 -4 -10 10 -16 -8 -11 -35 10 l-25 20 38 0
c20 0 37 -4 37 -10z m69 -17 c0 -10 -4 -27 -9 -38 -8 -19 -9 -18 -9 4 -1 20
-3 22 -16 11 -20 -16 -29 -7 -20 19 8 27 55 30 54 4z m68 7 c12 0 13 -8 8 -42
-9 -51 -8 -50 -29 -42 -9 3 -16 16 -17 28 0 20 -1 20 -9 1 -11 -24 -12 -9 -4
34 5 23 11 30 21 27 8 -4 21 -6 30 -6z m6041 -21 c17 2 22 -3 22 -18 0 -12 -4
-21 -10 -21 -5 0 -10 -5 -10 -11 0 -6 7 -9 15 -5 11 4 15 -1 15 -19 0 -22 -4
-25 -39 -25 -30 0 -40 4 -44 20 -4 14 0 20 11 21 15 1 15 2 0 6 -22 6 -34 43
-17 54 7 4 18 5 24 1 5 -3 20 -5 33 -3z m-6292 -65 c-3 -8 -1 -14 3 -14 5 0
11 4 13 9 2 5 12 3 22 -5 30 -21 11 -29 -34 -14 -46 15 -54 24 -46 46 5 12 10
13 27 4 12 -7 18 -18 15 -26z m5983 -119 c-8 -8 -19 -11 -26 -7 -9 6 -8 19 5
56 l17 48 9 -42 c7 -31 6 -44 -5 -55z m-5883 69 c17 -14 17 -15 1 -10 -10 3
-23 6 -28 6 -5 0 -9 5 -9 10 0 14 13 12 36 -6z m1444 -36 c0 -5 -8 -11 -17
-14 -74 -23 -181 -92 -291 -187 -64 -56 -116 -86 -291 -170 -27 -14 -199 -15
-251 -3 -19 5 -79 11 -133 13 -87 4 -109 2 -184 -22 -84 -26 -171 -61 -225
-90 -80 -45 -18 20 87 90 44 30 94 59 110 66 18 7 106 15 215 19 202 8 282 22
453 76 125 41 404 178 462 228 36 31 41 33 53 19 6 -9 12 -21 12 -25z m4780
23 c0 -24 -59 -36 -67 -13 -7 17 7 27 41 30 20 1 26 -3 26 -17z m-6145 -21
c34 -13 42 -19 27 -20 -22 0 -82 25 -82 35 0 7 0 7 55 -15z m5969 -6 c11 -29
6 -34 -34 -34 -32 0 -40 4 -40 18 0 25 9 32 41 32 15 0 29 -7 33 -16z m186
-28 c0 -17 -52 -28 -62 -13 -14 22 -8 27 27 27 23 0 35 -5 35 -14z m-4607
-321 c223 -361 582 -697 934 -874 23 -11 46 -27 50 -35 12 -20 115 -106 127
-106 6 1 -12 23 -41 49 l-52 49 72 -31 c40 -17 74 -32 76 -34 4 -3 -48 -93
-54 -93 -3 0 -42 18 -87 39 -81 38 -138 58 -138 48 0 -3 48 -28 106 -57 l107
-52 -39 -39 c-23 -24 -42 -35 -48 -30 -97 76 -166 119 -166 104 0 -5 21 -23
48 -41 26 -18 62 -46 80 -61 l33 -28 -31 -27 c-17 -14 -36 -26 -41 -26 -4 0
-28 19 -51 43 -64 63 -138 121 -145 113 -4 -4 33 -45 82 -93 l89 -86 -38 -33
c-43 -37 -48 -36 -68 4 -21 41 -120 162 -129 156 -10 -6 26 -70 56 -101 12
-12 32 -42 45 -67 l23 -45 -24 -20 c-31 -26 -36 -26 -51 3 -16 30 -136 156
-149 156 -18 0 -8 -16 44 -75 29 -33 63 -74 75 -92 l22 -31 -32 -20 c-33 -21
-58 -15 -58 12 0 15 -128 142 -135 134 -3 -3 14 -29 37 -57 24 -29 55 -69 70
-89 l27 -37 -42 -22 -42 -21 -15 31 c-29 61 -82 147 -91 147 -13 0 -12 -4 26
-75 58 -107 59 -112 25 -130 -28 -15 -31 -14 -37 2 -7 19 -91 133 -99 133 -11
0 -1 -22 29 -66 62 -90 62 -92 25 -107 l-33 -14 -23 50 c-28 64 -40 56 -12 -8
11 -26 19 -49 18 -51 -2 -1 -14 -5 -28 -9 -23 -5 -27 -1 -50 62 -14 40 -26 61
-28 50 -2 -10 3 -33 12 -52 37 -77 6 -122 -33 -49 -13 24 -28 44 -33 44 -5 0
0 -15 11 -34 19 -30 28 -66 17 -66 -2 0 -11 -3 -20 -6 -11 -4 -20 5 -31 32 -8
20 -18 34 -22 31 -3 -4 -1 -12 4 -19 14 -18 23 -58 13 -58 -5 0 -15 -2 -22 -5
-10 -4 -22 13 -38 52 -13 31 -25 52 -28 45 -2 -7 3 -28 12 -46 20 -43 20 -62
0 -70 -9 -4 -18 -5 -18 -4 -1 2 -10 22 -21 46 -19 44 -52 83 -39 46 4 -10 11
-24 16 -31 5 -6 13 -25 17 -41 8 -27 7 -31 -15 -35 -18 -3 -24 0 -24 12 0 10
-7 26 -16 37 -15 19 -16 19 -9 -1 16 -45 16 -52 -1 -59 -20 -8 -18 -11 -37 44
l-16 45 6 -52 c5 -48 4 -53 -14 -53 -15 0 -23 10 -31 42 l-11 43 6 -47 c5 -42
3 -48 -13 -48 -12 0 -25 14 -36 38 -17 35 -19 18 -3 -20 9 -23 -23 -37 -36
-17 -5 8 -9 9 -9 3 0 -7 -11 -14 -25 -16 -24 -5 -25 -3 -27 41 l-1 46 -6 -45
c-8 -59 -37 -68 -47 -16 -3 20 -11 39 -17 43 -10 6 -5 -23 9 -61 11 -29 -34
-19 -51 12 l-16 27 6 -28 c4 -20 1 -27 -10 -27 -10 0 -15 10 -15 30 0 17 -4
30 -10 30 -5 0 -10 -13 -10 -30 0 -29 -2 -30 -45 -30 -36 0 -45 4 -46 18 -1
16 -2 16 -6 -1 -2 -9 -13 -17 -24 -17 -14 0 -19 7 -20 28 -2 23 -2 24 -6 4 -6
-30 -43 -30 -44 1 l-2 22 -4 -23 c-3 -16 -10 -21 -21 -18 -9 2 -30 7 -45 10
-18 4 -25 11 -20 19 5 9 4 9 -8 0 -11 -9 -26 -7 -66 7 -224 79 -324 242 -293
477 51 392 262 789 685 1288 70 83 150 177 178 211 l51 61 56 -111 c31 -61 82
-151 113 -201z m4277 294 c0 -5 -4 -9 -10 -9 -5 0 -10 7 -10 16 0 8 5 12 10 9
6 -3 10 -10 10 -16z m-40 2 c0 -5 9 -13 20 -16 31 -10 24 -22 -16 -27 -39 -5
-48 3 -39 32 6 20 35 29 35 11z m190 0 c0 -5 3 -16 6 -25 5 -13 -1 -16 -30
-16 -20 0 -36 4 -36 9 0 5 -3 16 -6 25 -5 13 1 16 30 16 20 0 36 -4 36 -9z
m-5858 -67 c4 -26 5 -50 3 -52 -2 -3 -15 -2 -29 2 -20 5 -25 13 -28 51 -2 33
1 45 12 49 28 7 35 -1 42 -50z m65 23 c-3 -19 -1 -40 4 -48 6 -9 9 2 9 34 0
43 2 47 25 47 22 0 25 -4 25 -37 0 -21 3 -49 7 -62 6 -23 5 -24 -50 -19 -32 3
-59 7 -61 9 -2 2 -6 28 -10 57 l-7 52 32 0 c30 0 31 -1 26 -33z m5973 18 c0
-9 -10 -15 -22 -16 -13 0 -17 -3 -10 -6 6 -2 10 -9 6 -14 -10 -16 -22 -9 -26
16 -4 16 0 25 11 28 31 9 41 7 41 -8z m-6305 -23 c-6 -20 -7 -20 -53 -4 l-47
17 50 5 c60 6 58 7 50 -18z m65 -2 c0 -30 -20 -40 -46 -22 -18 11 2 52 26 52
16 0 20 -7 20 -30z m71 18 c0 -10 2 -10 6 0 2 6 15 12 28 12 19 0 24 -7 30
-41 8 -48 4 -54 -30 -45 -18 5 -25 13 -26 34 l-2 27 -4 -28 c-3 -21 -9 -27
-20 -23 -8 3 -19 6 -24 6 -5 0 -9 16 -9 35 0 31 3 35 25 35 14 0 25 -6 26 -12z
m5849 -37 c0 -10 3 -33 6 -50 6 -29 5 -31 -24 -31 -27 0 -32 5 -45 44 -17 49
-14 54 36 55 20 1 27 -4 27 -18z m150 0 c0 -20 -32 -37 -50 -26 -5 3 -10 15
-10 26 0 14 7 19 30 19 23 0 30 -5 30 -19z m180 -25 c0 -24 -23 -41 -41 -30
-13 8 -11 42 4 47 26 11 37 6 37 -17z m-170 -36 c0 -25 -4 -30 -25 -30 -14 0
-25 4 -25 9 0 5 -3 16 -6 24 -4 11 2 17 23 20 15 2 29 5 31 6 1 0 2 -12 2 -29z
m-278 -151 c2 -93 0 -133 -9 -136 -18 -6 -21 30 -3 45 9 8 10 11 1 6 -24 -12
-32 20 -8 33 l22 12 -23 1 c-12 0 -25 8 -29 18 -3 9 -12 24 -20 33 -12 15 -10
25 19 83 23 46 35 62 40 52 4 -8 9 -74 10 -147z m458 126 c0 -29 -28 -45 -41
-24 -18 29 -9 41 34 48 4 0 7 -10 7 -24z m-330 -9 c0 -2 3 -11 6 -20 5 -13 -1
-16 -25 -16 -24 0 -31 4 -31 20 0 15 7 20 25 20 14 0 25 -2 25 -4z m160 -31
c0 -20 -5 -25 -25 -25 -14 0 -25 4 -25 9 0 5 -3 16 -6 25 -5 13 1 16 25 16 26
0 31 -4 31 -25z m176 -47 c-20 -14 -34 -8 -38 16 -4 20 0 26 16 28 23 3 40
-32 22 -44z m-326 10 c0 -13 3 -33 6 -44 4 -16 0 -23 -16 -27 -28 -7 -38 20
-14 39 14 10 15 13 3 8 -20 -7 -35 26 -17 38 23 14 38 9 38 -14z m160 -23 c0
-20 -5 -25 -24 -25 -24 0 -41 23 -30 41 3 5 16 9 30 9 19 0 24 -5 24 -25z
m193 -24 c3 -13 -3 -22 -18 -29 -20 -9 -24 -8 -29 10 -3 12 -3 25 0 30 10 15
42 8 47 -11z m-180 -37 c3 -18 0 -24 -14 -24 -9 0 -24 -3 -33 -6 -12 -5 -16 0
-16 18 0 30 2 33 33 34 19 1 26 -4 30 -22z m-175 -45 c-21 -14 -28 -10 -28 15
0 30 33 41 38 12 2 -10 -2 -23 -10 -27z m380 15 c4 -29 -45 -41 -53 -13 -9 26
3 41 28 37 14 -2 23 -11 25 -24z m-188 -39 c0 -6 -16 -15 -35 -21 -34 -11 -35
-10 -35 17 0 23 5 28 28 31 26 3 42 -7 42 -27z m-180 -9 c0 -15 -7 -26 -20
-29 -16 -4 -20 0 -20 18 0 21 10 32 33 34 4 1 7 -10 7 -23z m396 3 c6 -11 -31
-48 -48 -49 -10 0 -20 38 -13 50 8 14 52 13 61 -1z m-637 -96 c1 -12 -3 -24
-8 -27 -26 -16 -54 -106 -59 -188 l-5 -87 -23 17 c-13 9 -24 20 -24 24 0 4
-11 19 -25 34 -14 15 -24 30 -23 34 2 3 35 70 73 148 l70 142 12 -37 c6 -21
12 -48 12 -60z m-5229 67 c131 -44 262 -43 373 5 l39 16 -27 -35 c-15 -20 -30
-36 -34 -37 -43 -3 -105 -12 -141 -19 -25 -6 -101 -19 -171 -30 -116 -18 -229
-47 -356 -90 -29 -10 -53 -16 -53 -14 0 8 119 161 141 181 52 47 133 55 229
23z m5669 -31 c1 -4 -11 -9 -26 -12 -16 -3 -36 -9 -45 -12 -14 -6 -18 -2 -18
18 0 21 7 27 38 34 36 9 48 2 51 -28z m231 -9 c0 -3 -13 -19 -29 -34 l-29 -27
-10 30 c-10 27 -8 33 16 51 25 20 27 20 39 4 7 -10 13 -21 13 -24z m-570 10
c0 -11 -4 -20 -10 -20 -5 0 -10 9 -10 20 0 11 5 20 10 20 6 0 10 -9 10 -20z
m150 -10 c0 -15 -7 -20 -25 -20 -18 0 -25 5 -25 20 0 15 7 20 25 20 18 0 25
-5 25 -20z m205 -41 c9 -26 10 -25 -52 -33 -49 -6 -53 -5 -53 14 0 39 93 56
105 19z m246 5 c12 -14 9 -20 -16 -40 -22 -18 -33 -20 -48 -12 -18 9 -18 11 9
39 32 34 37 35 55 13z m-451 -24 c0 -11 -6 -20 -14 -20 -8 0 -21 -3 -29 -6
-11 -4 -13 1 -10 20 7 33 53 38 53 6z m499 -23 c8 -10 7 -18 -2 -31 -10 -14
-18 -15 -40 -7 -32 12 -33 19 -9 37 22 17 37 17 51 1z m-269 -17 c0 -12 -109
-62 -120 -55 -6 3 -10 17 -10 30 0 19 6 25 33 29 84 14 97 13 97 -4z m-230
-25 c0 -21 -5 -25 -30 -25 -25 0 -30 4 -30 25 0 21 5 25 30 25 25 0 30 -4 30
-25z m550 0 c16 -19 5 -34 -20 -28 -24 6 -34 19 -25 33 9 14 31 12 45 -5z
m-331 -61 l-34 -33 -27 23 -26 24 36 17 c20 10 44 21 52 25 9 5 18 2 24 -7 6
-11 -1 -25 -25 -49z m-717 -13 c-25 -55 -51 -75 -36 -28 6 20 52 87 60 87 1 0
-9 -26 -24 -59z m1114 34 c14 -11 15 -14 4 -15 -28 0 -60 12 -54 21 8 13 28
11 50 -6z m-618 -16 c4 -24 -40 -33 -55 -12 -20 27 -15 34 19 31 21 -2 34 -9
36 -19z m275 -16 c2 -10 -3 -26 -11 -36 -9 -9 -12 -20 -9 -24 4 -4 13 2 20 12
13 16 16 14 40 -29 l26 -47 -37 22 c-20 13 -52 34 -70 47 l-33 25 22 23 c27
28 46 31 52 7z m397 7 c0 -5 -7 -7 -15 -4 -8 4 -15 8 -15 10 0 2 7 4 15 4 8 0
15 -4 15 -10z m79 -16 c10 -9 -45 -3 -59 6 -11 7 -5 8 20 4 19 -4 37 -8 39
-10z m99 -11 c-10 -2 -28 -2 -40 0 -13 2 -5 4 17 4 22 1 32 -1 23 -4z m-848
-28 c0 -30 -15 -33 -30 -6 -7 14 -6 21 3 24 23 10 27 7 27 -18z m0 -50 c0 -8
-2 -15 -4 -15 -2 0 -6 7 -10 15 -3 8 -1 15 4 15 6 0 10 -7 10 -15z m-611 -59
c-9 -18 -8 -19 3 -4 10 12 18 14 32 6 17 -9 16 -12 -10 -39 -15 -16 -22 -29
-16 -29 7 0 12 4 12 10 0 14 37 31 54 24 24 -9 20 -21 -14 -41 -16 -9 -30 -22
-30 -27 0 -5 8 -3 18 5 54 44 54 44 143 -40 l83 -77 -72 -39 c-40 -22 -72 -43
-72 -47 0 -5 34 9 76 31 42 23 80 39 84 36 3 -2 19 -22 35 -44 26 -39 27 -42
11 -66 -9 -14 -20 -25 -25 -25 -11 0 -95 -109 -89 -115 3 -3 37 28 76 70 l70
74 22 -36 21 -36 -66 -60 c-36 -33 -64 -62 -61 -65 5 -5 64 42 113 89 l23 22
30 -64 c16 -34 28 -65 26 -67 -2 -2 -37 -5 -77 -7 -100 -4 -169 -15 -169 -27
0 -9 185 -3 236 7 14 3 24 -1 28 -11 10 -26 7 -31 -26 -44 -32 -12 -47 -21
-148 -85 -50 -32 -41 -46 12 -18 127 67 178 90 182 85 7 -12 36 -115 36 -129
0 -10 -12 -12 -47 -8 -98 11 -243 15 -243 6 0 -11 50 -18 189 -27 l114 -7 -6
-131 c-6 -150 -28 -240 -55 -232 -9 3 -30 8 -47 11 -16 4 -48 13 -70 20 -78
25 -218 45 -201 28 10 -10 78 -33 99 -33 10 0 44 -9 77 -20 32 -11 79 -21 104
-22 25 -2 46 -6 46 -9 0 -20 -86 -133 -121 -159 -75 -54 -231 -85 -250 -50
-35 65 -83 140 -90 140 -5 0 12 -38 36 -85 l45 -85 -45 0 c-40 0 -45 3 -46 23
0 27 -47 129 -48 106 -1 -9 6 -33 14 -52 24 -58 20 -77 -15 -77 -29 0 -30 1
-30 49 0 28 -5 53 -10 56 -7 4 -8 -13 -4 -49 7 -55 7 -56 -20 -56 -25 0 -26 3
-27 53 l-2 52 -7 -45 c-4 -25 -6 -48 -4 -51 2 -3 -8 -4 -21 -1 -17 3 -25 11
-26 26 -2 20 -2 20 -6 -2 -3 -15 -11 -22 -29 -22 -21 0 -24 5 -26 38 -1 36 -1
36 -5 5 -4 -27 -9 -33 -28 -33 -19 0 -23 4 -19 18 5 15 4 15 -10 -2 -17 -21
-36 -14 -36 14 0 10 -4 21 -9 24 -4 3 -6 -6 -3 -19 5 -29 -5 -30 -78 -14 -25
5 -56 11 -70 13 -13 2 -26 9 -28 16 -3 9 -6 9 -12 1 -9 -16 -275 61 -457 133
-363 141 -551 274 -715 506 l-67 95 77 2 c655 20 1160 217 1607 626 43 40 63
52 72 45 9 -7 10 -16 2 -32z" />
        <path d="M10545 7160 c-3 -6 1 -7 9 -4 18 7 21 14 7 14 -6 0 -13 -4 -16 -10z" />
        <path d="M10728 6873 c7 -3 16 -2 19 1 4 3 -2 6 -13 5 -11 0 -14 -3 -6 -6z" />
        <path d="M10788 6733 c6 -2 18 -2 25 0 6 3 1 5 -13 5 -14 0 -19 -2 -12 -5z" />
        <path d="M10773 6683 c-13 -2 -23 -8 -23 -13 0 -6 10 -6 24 0 13 5 26 6 29 3
3 -2 14 0 24 6 16 9 15 10 -7 9 -14 0 -35 -3 -47 -5z" />
        <path d="M10806 6634 c-26 -9 -46 -17 -43 -20 7 -7 96 17 103 27 7 12 -1 11
-60 -7z" />
        <path d="M10825 6580 c-28 -7 -28 -8 -5 -9 14 0 32 4 40 9 17 11 8 11 -35 0z" />
        <path d="M10835 6529 c-53 -12 -69 -18 -63 -24 3 -3 31 1 63 10 88 23 88 34 0
14z" />
        <path d="M10855 6470 c-13 -6 -15 -9 -5 -9 8 0 22 4 30 9 18 12 2 12 -25 0z" />
        <path d="M10835 6405 l-40 -14 55 6 c30 3 62 9 70 14 25 14 -40 9 -85 -6z" />
        <path d="M10873 6353 c-24 -2 -43 -8 -43 -12 0 -9 96 2 107 12 3 4 0 6 -8 5
-8 -1 -33 -3 -56 -5z" />
        <path d="M10871 6221 c-10 -6 1 -8 30 -4 24 3 46 7 48 9 10 9 -65 3 -78 -5z" />
        <path d="M7740 6860 c8 -5 20 -10 25 -10 6 0 3 5 -5 10 -8 5 -19 10 -25 10 -5
0 -3 -5 5 -10z" />
        <path d="M7540 6330 c0 -9 100 -23 108 -15 3 3 -1 5 -9 5 -8 1 -33 5 -56 9
-24 5 -43 5 -43 1z" />
        <path d="M7531 6276 c2 -2 31 -6 64 -9 39 -4 51 -3 35 2 -25 9 -107 15 -99 7z" />
        <path d="M7580 6220 c8 -5 22 -9 30 -9 10 0 8 3 -5 9 -27 12 -43 12 -25 0z" />
        <path d="M7520 6171 c23 -13 118 -23 124 -13 6 9 -63 22 -113 22 -19 -1 -22
-3 -11 -9z" />
        <path d="M7578 6113 c7 -3 16 -2 19 1 4 3 -2 6 -13 5 -11 0 -14 -3 -6 -6z" />
        <path d="M7589 6057 c7 -7 18 -7 33 0 20 9 20 10 -10 10 -22 0 -29 -4 -23 -10z" />
        <path d="M7595 6010 l-20 -9 20 0 c11 0 27 4 35 9 13 9 13 10 0 9 -8 0 -24 -4
-35 -9z" />
        <path d="M7604 5948 c9 -5 23 -5 32 0 12 6 7 9 -16 9 -23 0 -28 -3 -16 -9z" />
        <path d="M7603 5901 c-24 -4 -46 -10 -50 -14 -10 -10 90 4 102 14 10 10 11 10
-52 0z" />
        <path d="M7610 5840 l-45 -7 42 -1 c23 -1 45 3 48 8 3 6 5 9 3 8 -2 0 -23 -4
-48 -8z" />
        <path d="M7623 5783 c9 -2 23 -2 30 0 6 3 -1 5 -18 5 -16 0 -22 -2 -12 -5z" />
        <path d="M7600 5670 c-17 -6 -7 -8 33 -5 33 2 62 6 65 9 8 9 -69 5 -98 -4z" />
        <path d="M7710 5530 c-9 -6 -10 -10 -3 -10 6 0 15 5 18 10 8 12 4 12 -15 0z" />
        <path d="M7710 5470 c-21 -7 -21 -8 -5 -9 11 0 27 4 35 9 18 11 5 11 -30 0z" />
        <path d="M9325 5444 c-9 -14 -15 -27 -13 -30 2 -2 12 10 22 26 21 37 15 40 -9
4z" />
        <path d="M7725 5420 c-16 -7 -17 -9 -3 -9 9 -1 20 4 23 9 7 11 7 11 -20 0z" />
        <path d="M9461 5387 c-13 -21 -12 -21 5 -5 10 10 16 20 13 22 -3 3 -11 -5 -18
-17z" />
        <path d="M9552 5370 c0 -14 2 -19 5 -12 2 6 2 18 0 25 -3 6 -5 1 -5 -13z" />
        <path d="M9595 5345 c-4 -25 -5 -48 -2 -51 2 -3 8 16 12 41 3 26 4 49 2 52 -3
3 -9 -16 -12 -42z" />
        <path d="M9499 5353 c-13 -16 -12 -17 4 -4 16 13 21 21 13 21 -2 0 -10 -8 -17
-17z" />
        <path d="M7780 5325 c-14 -8 -20 -14 -14 -15 5 0 19 7 30 15 24 18 16 19 -16
0z" />
        <path d="M9542 5320 c0 -14 2 -19 5 -12 2 6 2 18 0 25 -3 6 -5 1 -5 -13z" />
        <path d="M9792 5285 c-17 -37 -14 -45 4 -12 9 16 14 31 11 33 -2 2 -9 -7 -15
-21z" />
        <path d="M9318 5278 c-19 -16 -30 -46 -19 -52 4 -3 29 -6 55 -7 26 -2 49 -6
52 -10 2 -4 -17 -39 -43 -77 l-46 -70 -39 31 c-34 27 -49 32 -107 35 -73 4
-126 -14 -165 -57 -10 -11 -23 -18 -27 -15 -5 3 -6 -2 -3 -10 3 -8 -4 -28 -17
-45 -19 -25 -25 -28 -43 -20 -19 9 -20 9 -3 -4 33 -27 14 -57 -24 -37 -11 7
-23 9 -26 6 -3 -3 6 -10 21 -15 29 -12 35 -38 10 -48 -11 -4 -12 -8 -4 -13 9
-6 9 -13 1 -28 -6 -11 -11 -30 -11 -41 0 -15 -7 -21 -22 -22 -19 -1 -20 -2 -4
-6 14 -4 17 -11 12 -35 -3 -17 -6 -37 -6 -45 0 -12 -8 -14 -36 -8 -24 4 -34 3
-29 -4 3 -6 16 -11 29 -11 28 0 36 -8 29 -26 -4 -10 -17 -13 -47 -9 l-41 5 40
-14 c28 -9 41 -19 43 -34 3 -17 -1 -21 -15 -16 -17 5 -17 5 -1 -8 27 -23 7
-42 -38 -35 -22 4 -33 3 -28 -3 5 -4 22 -10 39 -12 34 -3 47 -33 18 -41 -17
-4 -17 -5 0 -6 13 -1 17 -10 17 -47 l0 -47 -45 5 c-24 3 -42 2 -39 -3 3 -5 17
-9 32 -9 44 0 49 -11 56 -96 l6 -82 -35 -6 c-19 -4 -37 -12 -41 -17 -4 -7 0
-9 12 -6 71 21 71 21 78 -24 7 -47 3 -55 -34 -62 -14 -2 -9 -3 12 -2 28 2 37
-1 41 -16 3 -10 4 -19 4 -20 -1 0 -22 -3 -47 -5 -64 -8 -63 -14 2 -14 50 0 56
-2 61 -22 2 -13 8 -30 11 -40 6 -13 -2 -18 -48 -28 -31 -6 -56 -15 -56 -19 0
-4 25 -1 56 6 47 12 58 12 65 2 10 -17 -1 -24 -68 -45 -29 -9 -53 -20 -53 -25
0 -4 29 3 65 16 l65 23 25 -48 c14 -27 39 -65 55 -84 l31 -35 -21 -40 c-11
-23 -24 -41 -28 -41 -4 0 -20 -12 -37 -26 l-30 -26 28 17 c16 9 30 15 32 13 2
-2 -16 -37 -41 -78 -24 -41 -43 -82 -42 -90 2 -11 21 -16 66 -20 l62 -5 -61
-80 c-34 -44 -86 -106 -115 -137 -30 -31 -54 -59 -54 -62 0 -3 9 -6 20 -6 28
0 79 48 163 154 100 124 127 166 127 196 0 23 -5 26 -37 28 -21 2 -38 4 -39 5
-2 1 18 35 44 75 44 69 47 72 85 72 117 0 221 165 273 430 21 112 30 417 15
535 -17 133 -48 251 -86 328 l-34 69 74 89 c72 86 105 136 105 159 0 15 -182
13 -202 -2z" />
        <path d="M8983 5225 c-17 -7 -36 -23 -43 -34 -14 -27 -10 -26 50 4 72 36 66
62 -7 30z" />
        <path d="M7858 5169 c-21 -11 -38 -22 -38 -24 0 -7 53 17 70 32 19 18 12 16
-32 -8z" />
        <path d="M9000 5169 c-50 -22 -70 -42 -94 -87 -36 -70 -13 -69 66 3 57 51 81
64 152 80 23 5 27 8 15 16 -24 15 -92 10 -139 -12z" />
        <path d="M10030 5150 c-9 -6 -10 -10 -3 -10 6 0 15 5 18 10 8 12 4 12 -15 0z" />
        <path d="M7868 5112 c-27 -8 -48 -20 -48 -25 0 -5 8 -6 18 -2 9 4 31 11 49 16
18 6 35 14 38 19 8 13 1 12 -57 -8z" />
        <path d="M9927 5039 c-18 -10 -47 -66 -47 -89 0 -16 17 -12 43 13 14 12 37 32
51 44 15 13 25 27 21 33 -8 13 -45 12 -68 -1z" />
        <path d="M9927 4769 c7 -7 15 -10 18 -7 3 3 -2 9 -12 12 -14 6 -15 5 -6 -5z" />
        <path d="M7383 4563 c-18 -9 -33 -20 -33 -24 0 -3 18 2 40 13 38 19 50 29 33
27 -5 0 -23 -8 -40 -16z" />
        <path d="M9508 4343 c-3 -10 -6 -52 -7 -93 -2 -51 -12 -103 -31 -160 -40 -120
-50 -159 -43 -176 26 -69 95 151 109 354 6 79 5 92 -8 92 -9 0 -18 -8 -20 -17z" />
        <path d="M7000 4200 c13 -24 5 -42 -18 -39 -31 3 -43 -1 -37 -11 3 -5 24 -10
45 -10 44 0 56 -14 115 -130 26 -51 75 -183 75 -202 0 -4 -26 -8 -57 -9 -32 0
-67 -4 -78 -9 -13 -6 8 -8 60 -7 l80 2 3 -27 3 -28 -77 0 c-73 0 -99 -13 -31
-15 122 -5 117 -3 117 -30 l0 -26 -92 6 c-113 8 -100 -9 15 -20 l77 -7 0 -66
c0 -36 -5 -105 -11 -153 l-11 -86 -37 9 c-113 27 -221 41 -200 25 8 -7 186
-47 207 -47 23 0 28 -18 14 -51 -6 -15 -12 -15 -57 -3 -80 22 -154 35 -178 32
-16 -2 -9 -7 23 -16 25 -7 66 -20 91 -27 26 -8 59 -15 73 -15 32 0 39 -14 28
-55 -10 -33 -31 -36 -87 -9 -45 21 -175 53 -180 44 -4 -7 48 -29 105 -45 14
-4 39 -13 55 -20 17 -7 42 -16 58 -19 15 -4 27 -13 27 -21 0 -13 -57 -165 -65
-173 -2 -2 -32 9 -67 26 -61 28 -194 82 -203 82 -18 0 2 -19 38 -36 88 -44
173 -82 197 -89 14 -4 28 -12 32 -18 11 -18 52 17 80 69 35 64 92 254 112 373
18 108 21 314 5 411 -22 139 -101 304 -197 411 -45 50 -71 65 -52 29z" />
        <path d="M9562 4208 c-5 -7 -15 -54 -21 -105 -6 -51 -14 -100 -18 -110 -5 -16
-3 -16 14 2 28 28 53 108 53 172 0 53 -8 64 -28 41z" />
        <path d="M6989 4113 c-12 -16 -12 -17 1 -7 8 6 22 14 30 17 13 5 12 6 -1 6 -9
1 -23 -7 -30 -16z" />
        <path d="M8114 3995 c-202 -44 -323 -202 -244 -318 126 -184 623 -195 783 -18
48 53 56 100 28 157 -11 24 -25 44 -29 44 -5 0 -27 17 -48 37 -100 94 -313
137 -490 98z m176 -77 c0 -10 2 -10 9 0 11 19 77 12 73 -7 -3 -12 0 -12 12 -2
12 10 25 10 66 -4 27 -9 48 -20 45 -25 -3 -4 3 -6 14 -3 27 7 34 -11 11 -32
-11 -10 -20 -22 -20 -26 0 -4 11 3 25 17 23 23 28 24 47 12 25 -17 52 -100 44
-134 -8 -30 -61 -70 -125 -95 l-51 -19 -16 40 c-9 23 -18 39 -20 37 -3 -2 2
-20 11 -40 14 -34 14 -36 -8 -43 -41 -14 -210 -7 -277 11 -124 32 -210 96
-210 156 0 30 53 99 94 121 71 39 276 65 276 36z" />
        <path d="M8452 3655 c11 -20 23 -34 25 -31 5 5 -35 66 -42 66 -3 0 5 -16 17
-35z" />
        <path d="M8490 3674 c0 -10 5 -26 10 -34 8 -11 9 -7 4 15 -8 37 -14 45 -14 19z" />
        <path d="M8843 3973 c9 -2 23 -2 30 0 6 3 -1 5 -18 5 -16 0 -22 -2 -12 -5z" />
        <path d="M7109 3851 c12 -8 51 -4 51 5 0 2 -15 4 -32 4 -23 0 -29 -3 -19 -9z" />
        <path d="M10935 3837 c-79 -32 -175 -81 -175 -89 0 -9 17 -3 88 28 29 13 57
24 63 24 18 0 89 40 89 50 0 13 -6 12 -65 -13z" />
        <path d="M7068 3843 c7 -3 16 -2 19 1 4 3 -2 6 -13 5 -11 0 -14 -3 -6 -6z" />
        <path d="M8885 3821 c-22 -11 -37 -20 -34 -20 10 -1 79 29 79 34 0 7 0 7 -45
-14z" />
        <path d="M8925 3780 c-19 -8 -19 -9 2 -9 12 -1 25 4 28 9 7 12 -2 12 -30 0z" />
        <path d="M10930 3721 c-61 -24 -113 -51 -107 -57 3 -3 27 3 54 14 26 11 63 25
81 32 34 13 52 31 30 29 -7 0 -33 -9 -58 -18z" />
        <path d="M8960 3680 c-25 -16 -39 -30 -32 -30 13 0 92 47 92 55 0 10 -16 3
-60 -25z" />
        <path d="M10419 3693 c-8 -10 -26 -35 -40 -56 -15 -24 -47 -51 -87 -74 -43
-24 -62 -40 -60 -52 6 -26 65 -17 107 17 34 28 109 143 110 170 1 17 -13 15
-30 -5z" />
        <path d="M9292 3648 c-7 -7 -38 -15 -69 -18 -65 -6 -87 -30 -28 -30 42 0 101
25 109 46 7 17 4 18 -12 2z" />
        <path d="M10458 3619 c-10 -5 -18 -16 -18 -24 0 -22 -57 -73 -97 -86 -27 -8
-33 -16 -31 -32 2 -17 9 -21 28 -20 35 4 140 115 140 148 0 28 1 28 -22 14z" />
        <path d="M7080 3588 c62 -17 99 -19 50 -3 -25 8 -54 14 -65 14 -11 -1 -5 -5
15 -11z" />
        <path d="M9180 3560 c0 -5 6 -10 14 -10 8 0 18 5 21 10 3 6 -3 10 -14 10 -12
0 -21 -4 -21 -10z" />
        <path d="M9624 3556 c-40 -14 -98 -80 -126 -142 -47 -107 -18 -267 57 -314 90
-56 210 20 258 164 24 70 32 166 18 209 -20 61 -139 108 -207 83z m78 -106
c45 -13 68 -43 68 -87 0 -37 -6 -40 -30 -18 -26 24 -84 30 -118 12 l-30 -15
10 32 c12 34 46 86 56 86 4 0 24 -5 44 -10z" />
        <path d="M7060 3510 c83 -12 128 -12 110 0 -8 5 -49 9 -90 8 l-75 -1 55 -7z" />
        <path d="M5673 3465 c0 -27 2 -38 4 -22 2 15 2 37 0 50 -2 12 -4 0 -4 -28z" />
        <path d="M6985 3456 c48 -22 138 -54 168 -60 45 -10 30 10 -20 28 -110 38
-213 60 -148 32z" />
        <path d="M6870 3123 c0 -4 15 -14 33 -21 17 -7 50 -21 72 -31 22 -10 56 -22
75 -26 55 -11 26 10 -60 43 -97 38 -120 45 -120 35z" />
        <path d="M10806 3061 c10 -11 58 -24 169 -47 154 -31 137 -8 -22 29 -117 28
-164 34 -147 18z" />
        <path d="M6781 2973 c68 -89 129 -156 136 -149 9 9 -123 166 -140 166 -5 0 -3
-8 4 -17z" />
        <path d="M10794 2949 c-3 -5 3 -12 13 -16 10 -3 34 -12 53 -20 112 -46 250
-76 158 -35 -102 46 -217 82 -224 71z" />
        <path d="M10650 2557 c0 -13 78 -41 209 -77 82 -22 91 -23 91 -12 0 10 -131
58 -238 87 -64 18 -62 18 -62 2z" />
        <path d="M10620 2466 c0 -8 20 -23 44 -35 25 -11 47 -25 51 -30 10 -17 164
-91 169 -82 3 4 -22 23 -55 42 -33 19 -73 43 -87 55 -25 19 -107 64 -117 64
-3 0 -5 -6 -5 -14z" />
        <path d="M10510 2192 c0 -6 17 -16 38 -23 20 -6 42 -15 47 -19 9 -6 50 -20
133 -45 12 -3 22 -3 22 2 0 8 -36 26 -80 38 -14 4 -41 15 -60 25 -46 23 -100
35 -100 22z" />
        <path d="M8406 2171 c-3 -5 11 -7 32 -4 49 7 54 13 9 13 -20 0 -38 -4 -41 -9z" />
        <path d="M8693 2163 c9 -2 23 -2 30 0 6 3 -1 5 -18 5 -16 0 -22 -2 -12 -5z" />
        <path d="M8900 2140 c0 -5 10 -10 23 -10 18 0 19 2 7 10 -19 13 -30 13 -30 0z" />
        <path d="M7982 2103 c-24 -8 -42 -17 -40 -19 7 -6 77 16 83 26 4 6 5 10 3 9
-2 0 -22 -7 -46 -16z" />
        <path d="M9175 2070 c3 -5 8 -10 11 -10 2 0 4 5 4 10 0 6 -5 10 -11 10 -5 0
-7 -4 -4 -10z" />
        <path d="M9397 1979 c7 -7 15 -10 18 -7 3 3 -2 9 -12 12 -14 6 -15 5 -6 -5z" />
        <path d="M9886 1577 c3 -10 9 -15 12 -12 3 3 0 11 -7 18 -10 9 -11 8 -5 -6z" />
        <path d="M9744 1335 c34 -53 51 -74 58 -75 10 0 -49 87 -65 97 -7 4 -3 -6 7
-22z" />
        <path d="M9158 1125 c5 -11 12 -27 15 -35 5 -13 6 -13 6 1 1 8 -6 24 -15 35
-15 19 -15 19 -6 -1z" />
        <path d="M11145 5349 c-4 -6 -5 -12 -2 -15 2 -3 7 2 10 11 7 17 1 20 -8 4z" />
        <path d="M11325 5230 c-22 -22 -36 -40 -33 -40 10 0 82 70 77 75 -3 2 -23 -13
-44 -35z" />
        <path d="M11374 5192 c-27 -21 -56 -47 -64 -58 -15 -18 -14 -18 10 -1 14 9 41
28 62 42 38 25 53 43 45 51 -2 3 -26 -13 -53 -34z" />
        <path d="M11435 5147 c-66 -54 -110 -96 -104 -101 3 -3 25 11 50 32 25 20 60
48 77 61 30 23 41 42 25 40 -5 0 -26 -14 -48 -32z" />
        <path d="M11490 5077 c-94 -43 -150 -72 -150 -79 0 -4 10 -3 23 2 136 56 187
82 177 93 -3 2 -25 -5 -50 -16z" />
        <path d="M11520 4997 c-57 -35 -111 -79 -105 -85 3 -3 25 9 49 26 24 18 48 32
53 32 5 0 20 11 33 25 29 31 17 32 -30 2z" />
        <path d="M11360 4221 c0 -5 8 -12 19 -16 10 -3 26 -14 36 -25 10 -11 25 -20
33 -20 10 0 6 6 -9 18 -46 34 -79 52 -79 43z" />
        <path d="M11324 4162 c9 -15 95 -57 102 -49 3 3 -16 15 -43 27 -26 13 -52 25
-57 28 -5 3 -6 0 -2 -6z" />
        <path d="M11320 4089 c14 -6 33 -15 42 -20 10 -5 28 -9 40 -9 20 1 19 3 -8 14
-17 8 -46 17 -65 20 -31 6 -32 5 -9 -5z" />
        <path d="M11260 4046 c0 -3 26 -12 58 -21 31 -9 65 -18 75 -21 9 -3 17 -1 17
3 0 5 -29 17 -64 26 -65 17 -86 20 -86 13z" />
        <path d="M11278 3983 c7 -3 16 -2 19 1 4 3 -2 6 -13 5 -11 0 -14 -3 -6 -6z" />
        <path d="M11320 3970 c8 -5 24 -9 35 -9 l20 0 -20 9 c-11 5 -27 9 -35 9 -13 1
-13 0 0 -9z" />
        <path d="M11308 3918 c5 -5 16 -8 23 -6 8 3 3 7 -10 11 -17 4 -21 3 -13 -5z" />
        <path d="M4665 3813 c4 -10 11 -33 15 -52 5 -18 14 -39 20 -45 9 -8 10 -4 4
19 -10 41 -33 95 -40 95 -3 0 -3 -8 1 -17z" />
        <path d="M4610 3793 c0 -7 5 -15 10 -18 6 -3 10 -14 10 -24 0 -9 7 -26 14 -37
13 -16 13 -12 0 26 -16 46 -34 74 -34 53z" />
        <path d="M4507 3735 c3 -27 10 -57 15 -65 12 -20 -1 79 -13 100 -5 9 -6 -4 -2
-35z" />
        <path d="M4380 3753 c2 -21 27 -103 34 -110 5 -4 6 1 3 12 -3 11 -9 37 -13 58
-3 20 -10 40 -15 43 -5 3 -9 2 -9 -3z" />
        <path d="M4452 3730 c0 -19 3 -44 8 -55 7 -17 9 -15 8 10 0 17 -4 41 -8 55 -7
23 -8 22 -8 -10z" />
        <path d="M4570 3731 c0 -11 4 -22 9 -25 4 -3 6 6 3 19 -5 30 -12 33 -12 6z" />
        <path d="M4202 3710 c20 -77 32 -110 39 -110 12 0 12 -2 -7 56 -15 45 -41 90
-32 54z" />
        <path d="M4340 3676 c0 -14 4 -27 8 -30 5 -3 6 8 4 25 -5 35 -12 38 -12 5z" />
        <path d="M4280 3664 c0 -10 5 -26 10 -34 8 -11 9 -7 4 15 -8 37 -14 45 -14 19z" />
        <path d="M3761 2950 c0 -25 4 -63 8 -85 8 -36 9 -34 10 30 0 39 -4 77 -9 85
-7 11 -10 3 -9 -30z" />
        <path d="M3922 2925 c0 -33 4 -71 8 -85 6 -18 8 -7 8 40 0 36 -3 74 -8 85 -6
14 -9 2 -8 -40z" />
        <path d="M4330 2896 c0 -51 4 -85 9 -81 10 6 7 152 -3 162 -3 4 -6 -33 -6 -81z" />
        <path d="M3536 3545 c10 -41 23 -75 28 -75 6 0 -20 90 -29 98 -4 4 -3 -7 1
-23z" />
        <path d="M3177 3455 c3 -16 9 -37 14 -45 15 -27 10 11 -6 45 l-14 30 6 -30z" />
        <path d="M3121 3430 c0 -8 6 -26 15 -40 l15 -25 -7 25 c-3 14 -10 32 -15 40
-7 13 -8 13 -8 0z" />
        <path d="M3164 2983 c3 -21 8 -59 12 -86 3 -26 11 -50 16 -53 7 -4 8 12 4 47
-13 107 -18 129 -28 129 -6 0 -7 -15 -4 -37z" />
        <path d="M2960 2939 c0 -40 3 -69 7 -65 12 11 14 124 3 131 -6 4 -10 -21 -10
-66z" />
        <path d="M3031 2930 l2 -85 9 74 c6 50 6 77 -1 84 -8 8 -11 -14 -10 -73z" />
        <path d="M2891 2944 c4 -31 10 -58 13 -61 8 -8 -5 101 -14 110 -4 4 -3 -18 1
-49z" />
        <path d="M3099 2937 c-2 -38 -1 -71 3 -73 9 -6 16 97 7 121 -4 12 -8 -6 -10
-48z" />
        <path d="M2829 2988 c-5 -16 -9 -111 -4 -106 8 8 18 108 10 108 -3 0 -5 -1 -6
-2z" />
        <path d="M3397 2951 c-4 -18 -6 -48 -6 -65 1 -21 4 -14 10 23 10 60 6 96 -4
42z" />
        <path d="M11265 3259 c-23 -5 -17 -7 27 -8 31 0 59 3 62 8 7 10 -43 10 -89 0z" />
        <path d="M11293 3209 c-18 -5 -33 -12 -33 -14 0 -6 62 6 80 16 13 7 13 8 0 8
-8 -1 -30 -5 -47 -10z" />
        <path d="M10831 3484 c0 -11 3 -14 6 -6 3 7 2 16 -1 19 -3 4 -6 -2 -5 -13z" />
        <path d="M11048 3353 c6 -2 18 -2 25 0 6 3 1 5 -13 5 -14 0 -19 -2 -12 -5z" />
        <path d="M11034 3306 c11 -9 24 -16 30 -16 12 0 7 5 -24 19 -24 11 -24 11 -6
-3z" />
        <path d="M2592 3295 c0 -16 2 -22 5 -12 2 9 2 23 0 30 -3 6 -5 -1 -5 -18z" />
        <path d="M2559 2995 c-1 -22 -3 -64 -5 -92 -1 -29 1 -55 5 -57 12 -8 23 166
11 178 -7 7 -10 -3 -11 -29z" />
        <path d="M2616 2975 c13 -101 23 -125 20 -47 -2 40 -8 78 -15 85 -8 8 -10 -1
-5 -38z" />
        <path d="M2236 2963 c-12 -88 -5 -142 9 -63 3 19 8 49 11 66 3 18 1 34 -4 38
-5 3 -12 -15 -16 -41z" />
        <path d="M2362 2948 c4 -34 10 -64 13 -66 7 -7 6 79 -1 106 -13 45 -20 20 -12
-40z" />
        <path d="M2430 2994 c0 -10 -3 -44 -6 -74 -5 -40 -4 -52 4 -45 12 11 19 121 9
132 -4 3 -7 -2 -7 -13z" />
        <path d="M2107 2959 c3 -24 9 -48 13 -53 5 -5 6 11 3 35 -3 24 -9 48 -13 53
-5 5 -6 -11 -3 -35z" />
        <path d="M2170 2938 c0 -74 5 -73 14 5 5 38 4 57 -3 57 -7 0 -11 -24 -11 -62z" />
        <path d="M2490 2928 c0 -39 3 -69 6 -65 11 11 15 137 4 137 -6 0 -10 -30 -10
-72z" />
        <path d="M2303 2940 c0 -30 2 -43 4 -27 2 15 2 39 0 55 -2 15 -4 2 -4 -28z" />
        <path d="M2102 3200 c0 -14 2 -19 5 -12 2 6 2 18 0 25 -3 6 -5 1 -5 -13z" />
        <path d="M2001 3180 c0 -8 4 -22 9 -30 12 -18 12 -2 0 25 -6 13 -9 15 -9 5z" />
        <path d="M1950 3164 c0 -10 5 -26 10 -34 8 -11 9 -7 4 15 -8 37 -14 45 -14 19z" />
        <path d="M1511 3064 c0 -11 3 -14 6 -6 3 7 2 16 -1 19 -3 4 -6 -2 -5 -13z" />
        <path d="M1547 2959 c10 -86 23 -113 17 -34 -4 39 -10 74 -15 79 -5 5 -6 -14
-2 -45z" />
        <path d="M1738 2978 c-1 -18 -2 -47 -3 -65 -1 -17 2 -38 6 -45 5 -8 9 19 9 65
0 76 -8 108 -12 45z" />
        <path d="M1787 2978 c3 -18 12 -49 20 -68 l13 -35 -5 40 c-10 70 -16 95 -26
95 -4 0 -6 -15 -2 -32z" />
        <path d="M1611 2960 c0 -25 4 -54 8 -65 6 -14 8 -4 9 31 0 28 -4 58 -9 65 -6
9 -9 -2 -8 -31z" />
        <path d="M1927 2983 c-12 -43 -18 -118 -9 -108 10 11 27 125 18 125 -2 0 -7
-8 -9 -17z" />
        <path d="M1426 2950 c10 -66 25 -96 18 -35 -4 28 -11 57 -16 65 -6 10 -6 -1
-2 -30z" />
        <path d="M1862 2965 c0 -16 2 -22 5 -12 2 9 2 23 0 30 -3 6 -5 -1 -5 -18z" />
        <path d="M1383 2925 c0 -33 2 -45 4 -27 2 18 2 45 0 60 -2 15 -4 0 -4 -33z" />
        <path d="M5511 3034 c0 -11 3 -14 6 -6 3 7 2 16 -1 19 -3 4 -6 -2 -5 -13z" />
        <path d="M5478 3029 c-2 -8 4 -22 14 -31 21 -21 23 -13 4 21 -9 16 -14 19 -18
10z" />
        <path d="M5421 2994 c0 -11 3 -14 6 -6 3 7 2 16 -1 19 -3 4 -6 -2 -5 -13z" />
        <path d="M1031 2980 c-2 -26 11 -60 20 -54 5 3 9 12 9 20 0 8 -4 13 -9 9 -5
-3 -12 5 -14 17 -2 13 -5 16 -6 8z" />
        <path d="M1074 2976 c-3 -8 -1 -23 5 -33 8 -15 10 -12 8 14 -2 36 -5 40 -13
19z" />
        <path d="M984 2950 c3 -19 11 -39 18 -45 8 -7 9 -1 4 25 -3 19 -11 39 -18 45
-8 7 -9 1 -4 -25z" />
        <path d="M11238 2803 c6 -2 18 -2 25 0 6 3 1 5 -13 5 -14 0 -19 -2 -12 -5z" />
        <path d="M5719 2787 c2 -39 5 -47 13 -33 5 9 7 30 3 46 -11 49 -20 42 -16 -13z" />
        <path d="M5521 2794 c0 -11 3 -14 6 -6 3 7 2 16 -1 19 -3 4 -6 -2 -5 -13z" />
        <path d="M6149 2673 c31 -45 38 -47 33 -10 -3 18 -7 26 -10 19 -3 -10 -9 -9
-25 5 -20 17 -20 16 2 -14z" />
        <path d="M6080 2676 c0 -12 43 -76 51 -76 9 0 -28 67 -42 76 -5 3 -9 3 -9 0z" />
        <path d="M6030 2661 c0 -6 4 -13 10 -16 6 -3 7 1 4 9 -7 18 -14 21 -14 7z" />
        <path d="M6051 2613 c-1 -12 4 -25 9 -28 12 -7 12 2 0 30 -8 19 -9 19 -9 -2z" />
        <path d="M6507 2583 c-4 -21 -2 -42 3 -47 7 -7 10 7 10 37 0 57 -5 60 -13 10z" />
        <path d="M6454 2566 c16 -46 28 -59 16 -16 -5 19 -14 38 -19 43 -5 5 -4 -7 3
-27z" />
        <path d="M6320 2574 c0 -3 7 -28 16 -55 17 -51 42 -82 31 -37 -13 52 -47 119
-47 92z" />
        <path d="M6401 2533 c-1 -12 4 -25 9 -28 12 -7 12 2 0 30 -8 19 -9 19 -9 -2z" />
        <path d="M6581 344 c0 -11 3 -14 6 -6 3 7 2 16 -1 19 -3 4 -6 -2 -5 -13z" />
        <path d="M10665 1412 c-11 -9 -27 -26 -35 -37 -8 -11 3 -4 23 14 33 31 42 42
35 41 -2 -1 -12 -8 -23 -18z" />
        <path d="M10685 1349 c-39 -38 -26 -38 17 1 18 17 28 30 23 29 -6 0 -23 -13
-40 -30z" />
        <path d="M10790 1241 c-80 -39 -122 -63 -117 -67 7 -7 167 68 167 78 0 11 -9
9 -50 -11z" />
        <path d="M10298 1053 c-15 -8 -48 -14 -73 -15 -25 0 -45 -4 -45 -8 0 -10 -72
-30 -109 -30 -19 0 -31 -5 -31 -13 0 -21 -61 -44 -105 -40 -36 4 -38 3 -22
-10 16 -14 15 -16 -18 -36 -20 -11 -49 -21 -64 -21 -16 0 -34 -7 -41 -15 -10
-12 -9 -15 5 -15 12 0 4 -10 -23 -30 -23 -16 -53 -30 -66 -30 -14 0 -28 -4
-31 -10 -3 -5 2 -10 11 -10 16 0 16 -1 -1 -20 -11 -12 -31 -20 -52 -20 -18 0
-33 -4 -33 -10 0 -5 9 -10 21 -10 18 0 16 -6 -20 -49 -57 -68 -51 -73 15 -11
56 53 59 54 122 35 34 -11 27 14 -8 29 -23 9 -27 15 -18 24 15 15 43 15 69 1
11 -5 28 -9 37 -7 13 3 9 9 -17 25 l-33 21 41 27 c42 28 59 26 84 -12 4 -7 12
-13 17 -13 15 0 12 33 -5 57 -14 20 -13 22 26 43 l42 21 38 -26 c43 -28 56
-13 19 20 l-21 19 23 13 c36 20 55 15 82 -19 31 -40 43 -30 30 21 -11 38 -10
39 19 45 43 9 42 9 62 -34 22 -49 38 -42 30 14 l-7 43 39 6 c21 4 54 7 74 7
34 0 80 23 68 34 -3 3 -24 7 -46 9 -22 2 -44 6 -49 9 -5 2 -21 -2 -36 -9z" />
        <path d="M10790 642 c0 -13 41 -20 169 -28 70 -5 102 -4 98 3 -4 6 -44 13 -89
17 -46 4 -104 10 -130 13 -30 3 -48 2 -48 -5z" />
        <path d="M10763 533 c4 -6 37 -16 74 -23 38 -7 75 -16 83 -20 28 -14 120 -23
120 -11 0 6 -12 13 -27 16 -16 3 -41 10 -58 15 -71 22 -201 37 -192 23z" />
        <path d="M10706 352 c122 -109 200 -166 210 -151 3 6 4 11 3 12 -2 1 -31 25
-64 53 -86 72 -161 124 -176 124 -8 0 5 -17 27 -38z" />
        <path d="M10655 280 c9 -16 19 -30 23 -30 5 0 18 -17 29 -38 23 -39 73 -92 73
-76 0 18 -119 174 -133 174 -4 0 -1 -13 8 -30z" />
    </g>
</svg>